G04 EAGLE Gerber X2 export*
%TF.Part,Single*%
%TF.FileFunction,Copper,L2,Bot,Mixed*%
%TF.FilePolarity,Positive*%
%TF.GenerationSoftware,Autodesk,EAGLE,8.6.0*%
%TF.CreationDate,2018-04-10T05:38:09Z*%
G75*
%MOMM*%
%FSLAX34Y34*%
%LPD*%
%AMOC8*
5,1,8,0,0,1.08239X$1,22.5*%
G01*
%ADD10P,1.732040X8X22.500000*%
%ADD11C,2.000000*%
%ADD12P,1.429621X8X292.500000*%
%ADD13P,1.429621X8X112.500000*%
%ADD14P,1.429621X8X22.500000*%
%ADD15C,0.756400*%
%ADD16C,0.152400*%

G36*
X1068398Y10164D02*
X1068398Y10164D01*
X1068417Y10162D01*
X1068519Y10184D01*
X1068621Y10200D01*
X1068638Y10210D01*
X1068658Y10214D01*
X1068747Y10267D01*
X1068838Y10316D01*
X1068852Y10330D01*
X1068869Y10340D01*
X1068936Y10419D01*
X1069008Y10494D01*
X1069016Y10512D01*
X1069029Y10527D01*
X1069068Y10623D01*
X1069111Y10717D01*
X1069113Y10737D01*
X1069121Y10755D01*
X1069139Y10922D01*
X1069139Y595378D01*
X1069136Y595398D01*
X1069138Y595417D01*
X1069116Y595519D01*
X1069100Y595621D01*
X1069090Y595638D01*
X1069086Y595658D01*
X1069033Y595747D01*
X1068984Y595838D01*
X1068970Y595852D01*
X1068960Y595869D01*
X1068881Y595936D01*
X1068806Y596008D01*
X1068788Y596016D01*
X1068773Y596029D01*
X1068677Y596068D01*
X1068583Y596111D01*
X1068563Y596113D01*
X1068545Y596121D01*
X1068378Y596139D01*
X10922Y596139D01*
X10902Y596136D01*
X10883Y596138D01*
X10781Y596116D01*
X10679Y596100D01*
X10662Y596090D01*
X10642Y596086D01*
X10553Y596033D01*
X10462Y595984D01*
X10448Y595970D01*
X10431Y595960D01*
X10364Y595881D01*
X10292Y595806D01*
X10284Y595788D01*
X10271Y595773D01*
X10232Y595677D01*
X10189Y595583D01*
X10187Y595563D01*
X10179Y595545D01*
X10161Y595378D01*
X10161Y10922D01*
X10164Y10902D01*
X10162Y10883D01*
X10184Y10781D01*
X10200Y10679D01*
X10210Y10662D01*
X10214Y10642D01*
X10267Y10553D01*
X10316Y10462D01*
X10330Y10448D01*
X10340Y10431D01*
X10419Y10364D01*
X10494Y10292D01*
X10512Y10284D01*
X10527Y10271D01*
X10623Y10232D01*
X10717Y10189D01*
X10737Y10187D01*
X10755Y10179D01*
X10922Y10161D01*
X1068378Y10161D01*
X1068398Y10164D01*
G37*
%LPC*%
G36*
X181108Y499175D02*
X181108Y499175D01*
X176872Y500930D01*
X173630Y504172D01*
X171875Y508408D01*
X171875Y532992D01*
X173630Y537228D01*
X176872Y540470D01*
X181108Y542225D01*
X185692Y542225D01*
X189928Y540470D01*
X193170Y537228D01*
X194925Y532992D01*
X194925Y508408D01*
X193170Y504172D01*
X189928Y500930D01*
X185692Y499175D01*
X181108Y499175D01*
G37*
%LPD*%
%LPC*%
G36*
X120108Y499175D02*
X120108Y499175D01*
X115872Y500930D01*
X112630Y504172D01*
X110875Y508408D01*
X110875Y532992D01*
X112630Y537228D01*
X115872Y540470D01*
X120108Y542225D01*
X124692Y542225D01*
X128928Y540470D01*
X132170Y537228D01*
X133925Y532992D01*
X133925Y508408D01*
X132170Y504172D01*
X128928Y500930D01*
X124692Y499175D01*
X120108Y499175D01*
G37*
%LPD*%
%LPC*%
G36*
X140108Y461175D02*
X140108Y461175D01*
X135872Y462930D01*
X132630Y466172D01*
X130875Y470408D01*
X130875Y474992D01*
X132630Y479228D01*
X135872Y482470D01*
X140108Y484225D01*
X164692Y484225D01*
X168928Y482470D01*
X172170Y479228D01*
X173925Y474992D01*
X173925Y470408D01*
X172170Y466172D01*
X168928Y462930D01*
X164692Y461175D01*
X140108Y461175D01*
G37*
%LPD*%
%LPC*%
G36*
X759802Y197893D02*
X759802Y197893D01*
X756693Y201002D01*
X756693Y204957D01*
X756679Y205048D01*
X756671Y205138D01*
X756659Y205168D01*
X756654Y205200D01*
X756611Y205281D01*
X756575Y205365D01*
X756549Y205397D01*
X756538Y205418D01*
X756515Y205440D01*
X756470Y205496D01*
X713496Y248470D01*
X713422Y248523D01*
X713352Y248583D01*
X713322Y248595D01*
X713296Y248614D01*
X713209Y248641D01*
X713124Y248675D01*
X713083Y248679D01*
X713061Y248686D01*
X713029Y248685D01*
X712957Y248693D01*
X709002Y248693D01*
X705893Y251802D01*
X705893Y256198D01*
X709002Y259307D01*
X713398Y259307D01*
X716507Y256198D01*
X716507Y252243D01*
X716513Y252206D01*
X716512Y252199D01*
X716520Y252164D01*
X716521Y252152D01*
X716529Y252062D01*
X716541Y252032D01*
X716546Y252000D01*
X716561Y251971D01*
X716564Y251958D01*
X716593Y251911D01*
X716625Y251835D01*
X716651Y251803D01*
X716662Y251782D01*
X716680Y251765D01*
X716690Y251747D01*
X716706Y251734D01*
X716730Y251704D01*
X759704Y208730D01*
X759778Y208677D01*
X759848Y208617D01*
X759878Y208605D01*
X759904Y208586D01*
X759991Y208559D01*
X760076Y208525D01*
X760117Y208521D01*
X760139Y208514D01*
X760171Y208515D01*
X760243Y208507D01*
X764198Y208507D01*
X767307Y205398D01*
X767307Y201002D01*
X764198Y197893D01*
X759802Y197893D01*
G37*
%LPD*%
%LPC*%
G36*
X834254Y269874D02*
X834254Y269874D01*
X828674Y275454D01*
X828674Y283346D01*
X834254Y288926D01*
X842146Y288926D01*
X847726Y283346D01*
X847726Y275454D01*
X842146Y269874D01*
X834254Y269874D01*
G37*
%LPD*%
%LPC*%
G36*
X808854Y269874D02*
X808854Y269874D01*
X803274Y275454D01*
X803274Y283346D01*
X808854Y288926D01*
X816746Y288926D01*
X822326Y283346D01*
X822326Y275454D01*
X816746Y269874D01*
X808854Y269874D01*
G37*
%LPD*%
%LPC*%
G36*
X656454Y269874D02*
X656454Y269874D01*
X650874Y275454D01*
X650874Y283346D01*
X656454Y288926D01*
X664346Y288926D01*
X669926Y283346D01*
X669926Y275454D01*
X664346Y269874D01*
X656454Y269874D01*
G37*
%LPD*%
%LPC*%
G36*
X631054Y269874D02*
X631054Y269874D01*
X625474Y275454D01*
X625474Y283346D01*
X631054Y288926D01*
X638946Y288926D01*
X644526Y283346D01*
X644526Y275454D01*
X638946Y269874D01*
X631054Y269874D01*
G37*
%LPD*%
%LPC*%
G36*
X974533Y512571D02*
X974533Y512571D01*
X969771Y517333D01*
X969771Y524067D01*
X974533Y528829D01*
X981267Y528829D01*
X986029Y524067D01*
X986029Y517333D01*
X981267Y512571D01*
X974533Y512571D01*
G37*
%LPD*%
%LPC*%
G36*
X809433Y512571D02*
X809433Y512571D01*
X804671Y517333D01*
X804671Y524067D01*
X809433Y528829D01*
X816167Y528829D01*
X820929Y524067D01*
X820929Y517333D01*
X816167Y512571D01*
X809433Y512571D01*
G37*
%LPD*%
%LPC*%
G36*
X657033Y512571D02*
X657033Y512571D01*
X652271Y517333D01*
X652271Y524067D01*
X657033Y528829D01*
X663767Y528829D01*
X668529Y524067D01*
X668529Y517333D01*
X663767Y512571D01*
X657033Y512571D01*
G37*
%LPD*%
%LPC*%
G36*
X479233Y512571D02*
X479233Y512571D01*
X474471Y517333D01*
X474471Y524067D01*
X479233Y528829D01*
X485967Y528829D01*
X490729Y524067D01*
X490729Y517333D01*
X485967Y512571D01*
X479233Y512571D01*
G37*
%LPD*%
%LPC*%
G36*
X974533Y410971D02*
X974533Y410971D01*
X969771Y415733D01*
X969771Y422467D01*
X974533Y427229D01*
X981267Y427229D01*
X986029Y422467D01*
X986029Y415733D01*
X981267Y410971D01*
X974533Y410971D01*
G37*
%LPD*%
%LPC*%
G36*
X809433Y410971D02*
X809433Y410971D01*
X804671Y415733D01*
X804671Y422467D01*
X809433Y427229D01*
X816167Y427229D01*
X820929Y422467D01*
X820929Y415733D01*
X816167Y410971D01*
X809433Y410971D01*
G37*
%LPD*%
%LPC*%
G36*
X657033Y410971D02*
X657033Y410971D01*
X652271Y415733D01*
X652271Y422467D01*
X657033Y427229D01*
X663767Y427229D01*
X668529Y422467D01*
X668529Y415733D01*
X663767Y410971D01*
X657033Y410971D01*
G37*
%LPD*%
%LPC*%
G36*
X479233Y410971D02*
X479233Y410971D01*
X474471Y415733D01*
X474471Y422467D01*
X479233Y427229D01*
X485967Y427229D01*
X490729Y422467D01*
X490729Y415733D01*
X485967Y410971D01*
X479233Y410971D01*
G37*
%LPD*%
%LPC*%
G36*
X974533Y296671D02*
X974533Y296671D01*
X969771Y301433D01*
X969771Y308167D01*
X974533Y312929D01*
X981267Y312929D01*
X986029Y308167D01*
X986029Y301433D01*
X981267Y296671D01*
X974533Y296671D01*
G37*
%LPD*%
%LPC*%
G36*
X479233Y296671D02*
X479233Y296671D01*
X474471Y301433D01*
X474471Y308167D01*
X479233Y312929D01*
X485967Y312929D01*
X490729Y308167D01*
X490729Y301433D01*
X485967Y296671D01*
X479233Y296671D01*
G37*
%LPD*%
%LPC*%
G36*
X974533Y271271D02*
X974533Y271271D01*
X969771Y276033D01*
X969771Y282767D01*
X974533Y287529D01*
X981267Y287529D01*
X986029Y282767D01*
X986029Y276033D01*
X981267Y271271D01*
X974533Y271271D01*
G37*
%LPD*%
%LPC*%
G36*
X479233Y271271D02*
X479233Y271271D01*
X474471Y276033D01*
X474471Y282767D01*
X479233Y287529D01*
X485967Y287529D01*
X490729Y282767D01*
X490729Y276033D01*
X485967Y271271D01*
X479233Y271271D01*
G37*
%LPD*%
%LPC*%
G36*
X974533Y93471D02*
X974533Y93471D01*
X969771Y98233D01*
X969771Y104967D01*
X974533Y109729D01*
X981267Y109729D01*
X986029Y104967D01*
X986029Y98233D01*
X981267Y93471D01*
X974533Y93471D01*
G37*
%LPD*%
%LPC*%
G36*
X504633Y93471D02*
X504633Y93471D01*
X499871Y98233D01*
X499871Y104967D01*
X504633Y109729D01*
X511367Y109729D01*
X516129Y104967D01*
X516129Y98233D01*
X511367Y93471D01*
X504633Y93471D01*
G37*
%LPD*%
%LPC*%
G36*
X479233Y93471D02*
X479233Y93471D01*
X474471Y98233D01*
X474471Y104967D01*
X479233Y109729D01*
X485967Y109729D01*
X490729Y104967D01*
X490729Y98233D01*
X485967Y93471D01*
X479233Y93471D01*
G37*
%LPD*%
%LPC*%
G36*
X974533Y68071D02*
X974533Y68071D01*
X969771Y72833D01*
X969771Y79567D01*
X974533Y84329D01*
X981267Y84329D01*
X986029Y79567D01*
X986029Y72833D01*
X981267Y68071D01*
X974533Y68071D01*
G37*
%LPD*%
%LPC*%
G36*
X949133Y68071D02*
X949133Y68071D01*
X944371Y72833D01*
X944371Y79567D01*
X949133Y84329D01*
X955867Y84329D01*
X960629Y79567D01*
X960629Y72833D01*
X955867Y68071D01*
X949133Y68071D01*
G37*
%LPD*%
%LPC*%
G36*
X504633Y68071D02*
X504633Y68071D01*
X499871Y72833D01*
X499871Y79567D01*
X504633Y84329D01*
X511367Y84329D01*
X516129Y79567D01*
X516129Y72833D01*
X511367Y68071D01*
X504633Y68071D01*
G37*
%LPD*%
D10*
X635000Y279400D03*
X660400Y279400D03*
X812800Y279400D03*
X838200Y279400D03*
D11*
X183400Y510700D02*
X183400Y530700D01*
X122400Y530700D02*
X122400Y510700D01*
X142400Y472700D02*
X162400Y472700D01*
D12*
X482600Y304800D03*
X482600Y279400D03*
X977900Y304800D03*
X977900Y279400D03*
D13*
X482600Y419100D03*
X482600Y520700D03*
X660400Y419100D03*
X660400Y520700D03*
X812800Y419100D03*
X812800Y520700D03*
X977900Y419100D03*
X977900Y520700D03*
D14*
X952500Y76200D03*
X977900Y76200D03*
X977900Y101600D03*
D13*
X508000Y76200D03*
X508000Y101600D03*
X482600Y101600D03*
D15*
X762000Y203200D03*
D16*
X711200Y254000D01*
D15*
X711200Y254000D03*
M02*
