G04 EAGLE Gerber X2 export*
%TF.Part,Single*%
%TF.FileFunction,Copper,L1,Top,Mixed*%
%TF.FilePolarity,Positive*%
%TF.GenerationSoftware,Autodesk,EAGLE,8.6.0*%
%TF.CreationDate,2018-04-10T05:38:09Z*%
G75*
%MOMM*%
%FSLAX34Y34*%
%LPD*%
%AMOC8*
5,1,8,0,0,1.08239X$1,22.5*%
G01*
%ADD10P,1.732040X8X22.500000*%
%ADD11C,2.000000*%
%ADD12P,1.429621X8X292.500000*%
%ADD13P,1.429621X8X112.500000*%
%ADD14R,2.006600X1.092200*%
%ADD15P,1.429621X8X22.500000*%
%ADD16C,0.152400*%
%ADD17C,0.756400*%


D10*
X635000Y279400D03*
X660400Y279400D03*
X812800Y279400D03*
X838200Y279400D03*
D11*
X183400Y510700D02*
X183400Y530700D01*
X122400Y530700D02*
X122400Y510700D01*
X142400Y472700D02*
X162400Y472700D01*
D12*
X482600Y304800D03*
X482600Y279400D03*
X977900Y304800D03*
X977900Y279400D03*
D13*
X482600Y419100D03*
X482600Y520700D03*
X660400Y419100D03*
X660400Y520700D03*
X812800Y419100D03*
X812800Y520700D03*
X977900Y419100D03*
X977900Y520700D03*
D14*
X272542Y520700D03*
X362458Y520700D03*
D15*
X952500Y76200D03*
X977900Y76200D03*
X977900Y101600D03*
D13*
X508000Y76200D03*
X508000Y101600D03*
X482600Y101600D03*
D16*
X482600Y520700D02*
X362458Y520700D01*
X482600Y520700D02*
X660400Y520700D01*
X812800Y520700D01*
X977900Y520700D01*
X482600Y419100D02*
X482600Y304800D01*
X482600Y279400D02*
X635000Y279400D01*
X482600Y279400D02*
X482600Y101600D01*
X660400Y279400D02*
X660400Y419100D01*
X863600Y190500D02*
X977900Y76200D01*
X863600Y190500D02*
X774700Y190500D01*
X762000Y203200D01*
D17*
X762000Y203200D03*
X711200Y254000D03*
D16*
X685800Y279400D01*
X660400Y279400D01*
X812800Y279400D02*
X812800Y419100D01*
X596900Y190500D02*
X508000Y101600D01*
X596900Y190500D02*
X698500Y190500D01*
X787400Y279400D01*
X812800Y279400D01*
X977900Y304800D02*
X977900Y419100D01*
X977900Y279400D02*
X977900Y101600D01*
X977900Y279400D02*
X838200Y279400D01*
X317500Y325600D02*
X122400Y520700D01*
X317500Y325600D02*
X317500Y165100D01*
X406400Y76200D01*
X508000Y76200D01*
X952500Y76200D01*
X152400Y490700D02*
X122400Y520700D01*
X152400Y490700D02*
X152400Y472700D01*
X183400Y520700D02*
X272542Y520700D01*
X279400Y520700D01*
M02*
