M48
;GenerationSoftware,Autodesk,EAGLE,8.6.0*%
;CreationDate,2018-04-10T05:38:09Z*%
FMAT,2
ICI,OFF
METRIC,TZ,000.000
T3C0.350
T2C0.813
T1C1.000
%
G90
M71
T1
X18340Y52070
X12240Y52070
X15240Y47270
T2
X63500Y27940
X66040Y27940
X81280Y27940
X83820Y27940
X48260Y30480
X48260Y27940
X97790Y30480
X97790Y27940
X48260Y41910
X48260Y52070
X66040Y41910
X66040Y52070
X81280Y41910
X81280Y52070
X97790Y41910
X97790Y52070
X95250Y7620
X97790Y7620
X97790Y10160
X50800Y7620
X50800Y10160
X48260Y10160
T3
X76200Y20320
X71120Y25400
M30