G04 EAGLE Gerber X2 export*
%TF.Part,Single*%
%TF.FileFunction,Legend,Top,1*%
%TF.FilePolarity,Positive*%
%TF.GenerationSoftware,Autodesk,EAGLE,8.6.0*%
%TF.CreationDate,2018-04-10T05:38:09Z*%
G75*
%MOMM*%
%FSLAX34Y34*%
%LPD*%
%AMOC8*
5,1,8,0,0,1.08239X$1,22.5*%
G01*
%ADD10C,0.152400*%
%ADD11C,0.254000*%
%ADD12C,0.127000*%
%ADD13C,0.203200*%
%ADD14C,0.101600*%
%ADD15R,0.609600X0.863600*%
%ADD16C,0.076200*%
%ADD17R,1.524000X1.524000*%
%ADD18C,0.050800*%


D10*
X626110Y294640D02*
X669290Y294640D01*
X669290Y264160D02*
X626110Y264160D01*
X671830Y266700D02*
X671830Y292100D01*
X623570Y292100D02*
X623570Y266700D01*
X669290Y294640D02*
X669390Y294638D01*
X669489Y294632D01*
X669589Y294622D01*
X669687Y294609D01*
X669786Y294591D01*
X669883Y294570D01*
X669979Y294545D01*
X670075Y294516D01*
X670169Y294483D01*
X670262Y294447D01*
X670353Y294407D01*
X670443Y294363D01*
X670531Y294316D01*
X670617Y294266D01*
X670701Y294212D01*
X670783Y294155D01*
X670862Y294095D01*
X670940Y294031D01*
X671014Y293965D01*
X671086Y293896D01*
X671155Y293824D01*
X671221Y293750D01*
X671285Y293672D01*
X671345Y293593D01*
X671402Y293511D01*
X671456Y293427D01*
X671506Y293341D01*
X671553Y293253D01*
X671597Y293163D01*
X671637Y293072D01*
X671673Y292979D01*
X671706Y292885D01*
X671735Y292789D01*
X671760Y292693D01*
X671781Y292596D01*
X671799Y292497D01*
X671812Y292399D01*
X671822Y292299D01*
X671828Y292200D01*
X671830Y292100D01*
X626110Y294640D02*
X626010Y294638D01*
X625911Y294632D01*
X625811Y294622D01*
X625713Y294609D01*
X625614Y294591D01*
X625517Y294570D01*
X625421Y294545D01*
X625325Y294516D01*
X625231Y294483D01*
X625138Y294447D01*
X625047Y294407D01*
X624957Y294363D01*
X624869Y294316D01*
X624783Y294266D01*
X624699Y294212D01*
X624617Y294155D01*
X624538Y294095D01*
X624460Y294031D01*
X624386Y293965D01*
X624314Y293896D01*
X624245Y293824D01*
X624179Y293750D01*
X624115Y293672D01*
X624055Y293593D01*
X623998Y293511D01*
X623944Y293427D01*
X623894Y293341D01*
X623847Y293253D01*
X623803Y293163D01*
X623763Y293072D01*
X623727Y292979D01*
X623694Y292885D01*
X623665Y292789D01*
X623640Y292693D01*
X623619Y292596D01*
X623601Y292497D01*
X623588Y292399D01*
X623578Y292299D01*
X623572Y292200D01*
X623570Y292100D01*
X669290Y264160D02*
X669390Y264162D01*
X669489Y264168D01*
X669589Y264178D01*
X669687Y264191D01*
X669786Y264209D01*
X669883Y264230D01*
X669979Y264255D01*
X670075Y264284D01*
X670169Y264317D01*
X670262Y264353D01*
X670353Y264393D01*
X670443Y264437D01*
X670531Y264484D01*
X670617Y264534D01*
X670701Y264588D01*
X670783Y264645D01*
X670862Y264705D01*
X670940Y264769D01*
X671014Y264835D01*
X671086Y264904D01*
X671155Y264976D01*
X671221Y265050D01*
X671285Y265128D01*
X671345Y265207D01*
X671402Y265289D01*
X671456Y265373D01*
X671506Y265459D01*
X671553Y265547D01*
X671597Y265637D01*
X671637Y265728D01*
X671673Y265821D01*
X671706Y265915D01*
X671735Y266011D01*
X671760Y266107D01*
X671781Y266204D01*
X671799Y266303D01*
X671812Y266401D01*
X671822Y266501D01*
X671828Y266600D01*
X671830Y266700D01*
X626110Y264160D02*
X626010Y264162D01*
X625911Y264168D01*
X625811Y264178D01*
X625713Y264191D01*
X625614Y264209D01*
X625517Y264230D01*
X625421Y264255D01*
X625325Y264284D01*
X625231Y264317D01*
X625138Y264353D01*
X625047Y264393D01*
X624957Y264437D01*
X624869Y264484D01*
X624783Y264534D01*
X624699Y264588D01*
X624617Y264645D01*
X624538Y264705D01*
X624460Y264769D01*
X624386Y264835D01*
X624314Y264904D01*
X624245Y264976D01*
X624179Y265050D01*
X624115Y265128D01*
X624055Y265207D01*
X623998Y265289D01*
X623944Y265373D01*
X623894Y265459D01*
X623847Y265547D01*
X623803Y265637D01*
X623763Y265728D01*
X623727Y265821D01*
X623694Y265915D01*
X623665Y266011D01*
X623640Y266107D01*
X623619Y266204D01*
X623601Y266303D01*
X623588Y266401D01*
X623578Y266501D01*
X623572Y266600D01*
X623570Y266700D01*
X650240Y279400D02*
X651510Y279400D01*
D11*
X650240Y279400D02*
X650240Y287020D01*
X650240Y279400D02*
X650240Y271780D01*
X645160Y279400D02*
X645160Y287020D01*
X645160Y279400D02*
X645160Y271780D01*
D10*
X645160Y279400D02*
X643890Y279400D01*
D12*
X636905Y297815D02*
X634365Y297815D01*
X634265Y297817D01*
X634166Y297823D01*
X634066Y297833D01*
X633968Y297846D01*
X633869Y297864D01*
X633772Y297885D01*
X633676Y297910D01*
X633580Y297939D01*
X633486Y297972D01*
X633393Y298008D01*
X633302Y298048D01*
X633212Y298092D01*
X633124Y298139D01*
X633038Y298189D01*
X632954Y298243D01*
X632872Y298300D01*
X632793Y298360D01*
X632715Y298424D01*
X632641Y298490D01*
X632569Y298559D01*
X632500Y298631D01*
X632434Y298705D01*
X632370Y298783D01*
X632310Y298862D01*
X632253Y298944D01*
X632199Y299028D01*
X632149Y299114D01*
X632102Y299202D01*
X632058Y299292D01*
X632018Y299383D01*
X631982Y299476D01*
X631949Y299570D01*
X631920Y299666D01*
X631895Y299762D01*
X631874Y299859D01*
X631856Y299958D01*
X631843Y300056D01*
X631833Y300156D01*
X631827Y300255D01*
X631825Y300355D01*
X631825Y306705D01*
X631827Y306805D01*
X631833Y306904D01*
X631843Y307004D01*
X631856Y307102D01*
X631874Y307201D01*
X631895Y307298D01*
X631920Y307394D01*
X631949Y307490D01*
X631982Y307584D01*
X632018Y307677D01*
X632058Y307768D01*
X632102Y307858D01*
X632149Y307946D01*
X632199Y308032D01*
X632253Y308116D01*
X632310Y308198D01*
X632370Y308277D01*
X632434Y308355D01*
X632500Y308429D01*
X632569Y308501D01*
X632641Y308570D01*
X632715Y308636D01*
X632793Y308700D01*
X632872Y308760D01*
X632954Y308817D01*
X633038Y308871D01*
X633124Y308921D01*
X633212Y308968D01*
X633302Y309012D01*
X633393Y309052D01*
X633486Y309088D01*
X633580Y309121D01*
X633676Y309150D01*
X633772Y309175D01*
X633869Y309196D01*
X633968Y309214D01*
X634066Y309227D01*
X634166Y309237D01*
X634265Y309243D01*
X634365Y309245D01*
X636905Y309245D01*
X641387Y306705D02*
X644562Y309245D01*
X644562Y297815D01*
X641387Y297815D02*
X647737Y297815D01*
D10*
X803910Y294640D02*
X847090Y294640D01*
X847090Y264160D02*
X803910Y264160D01*
X849630Y266700D02*
X849630Y292100D01*
X801370Y292100D02*
X801370Y266700D01*
X847090Y294640D02*
X847190Y294638D01*
X847289Y294632D01*
X847389Y294622D01*
X847487Y294609D01*
X847586Y294591D01*
X847683Y294570D01*
X847779Y294545D01*
X847875Y294516D01*
X847969Y294483D01*
X848062Y294447D01*
X848153Y294407D01*
X848243Y294363D01*
X848331Y294316D01*
X848417Y294266D01*
X848501Y294212D01*
X848583Y294155D01*
X848662Y294095D01*
X848740Y294031D01*
X848814Y293965D01*
X848886Y293896D01*
X848955Y293824D01*
X849021Y293750D01*
X849085Y293672D01*
X849145Y293593D01*
X849202Y293511D01*
X849256Y293427D01*
X849306Y293341D01*
X849353Y293253D01*
X849397Y293163D01*
X849437Y293072D01*
X849473Y292979D01*
X849506Y292885D01*
X849535Y292789D01*
X849560Y292693D01*
X849581Y292596D01*
X849599Y292497D01*
X849612Y292399D01*
X849622Y292299D01*
X849628Y292200D01*
X849630Y292100D01*
X803910Y294640D02*
X803810Y294638D01*
X803711Y294632D01*
X803611Y294622D01*
X803513Y294609D01*
X803414Y294591D01*
X803317Y294570D01*
X803221Y294545D01*
X803125Y294516D01*
X803031Y294483D01*
X802938Y294447D01*
X802847Y294407D01*
X802757Y294363D01*
X802669Y294316D01*
X802583Y294266D01*
X802499Y294212D01*
X802417Y294155D01*
X802338Y294095D01*
X802260Y294031D01*
X802186Y293965D01*
X802114Y293896D01*
X802045Y293824D01*
X801979Y293750D01*
X801915Y293672D01*
X801855Y293593D01*
X801798Y293511D01*
X801744Y293427D01*
X801694Y293341D01*
X801647Y293253D01*
X801603Y293163D01*
X801563Y293072D01*
X801527Y292979D01*
X801494Y292885D01*
X801465Y292789D01*
X801440Y292693D01*
X801419Y292596D01*
X801401Y292497D01*
X801388Y292399D01*
X801378Y292299D01*
X801372Y292200D01*
X801370Y292100D01*
X847090Y264160D02*
X847190Y264162D01*
X847289Y264168D01*
X847389Y264178D01*
X847487Y264191D01*
X847586Y264209D01*
X847683Y264230D01*
X847779Y264255D01*
X847875Y264284D01*
X847969Y264317D01*
X848062Y264353D01*
X848153Y264393D01*
X848243Y264437D01*
X848331Y264484D01*
X848417Y264534D01*
X848501Y264588D01*
X848583Y264645D01*
X848662Y264705D01*
X848740Y264769D01*
X848814Y264835D01*
X848886Y264904D01*
X848955Y264976D01*
X849021Y265050D01*
X849085Y265128D01*
X849145Y265207D01*
X849202Y265289D01*
X849256Y265373D01*
X849306Y265459D01*
X849353Y265547D01*
X849397Y265637D01*
X849437Y265728D01*
X849473Y265821D01*
X849506Y265915D01*
X849535Y266011D01*
X849560Y266107D01*
X849581Y266204D01*
X849599Y266303D01*
X849612Y266401D01*
X849622Y266501D01*
X849628Y266600D01*
X849630Y266700D01*
X803910Y264160D02*
X803810Y264162D01*
X803711Y264168D01*
X803611Y264178D01*
X803513Y264191D01*
X803414Y264209D01*
X803317Y264230D01*
X803221Y264255D01*
X803125Y264284D01*
X803031Y264317D01*
X802938Y264353D01*
X802847Y264393D01*
X802757Y264437D01*
X802669Y264484D01*
X802583Y264534D01*
X802499Y264588D01*
X802417Y264645D01*
X802338Y264705D01*
X802260Y264769D01*
X802186Y264835D01*
X802114Y264904D01*
X802045Y264976D01*
X801979Y265050D01*
X801915Y265128D01*
X801855Y265207D01*
X801798Y265289D01*
X801744Y265373D01*
X801694Y265459D01*
X801647Y265547D01*
X801603Y265637D01*
X801563Y265728D01*
X801527Y265821D01*
X801494Y265915D01*
X801465Y266011D01*
X801440Y266107D01*
X801419Y266204D01*
X801401Y266303D01*
X801388Y266401D01*
X801378Y266501D01*
X801372Y266600D01*
X801370Y266700D01*
X828040Y279400D02*
X829310Y279400D01*
D11*
X828040Y279400D02*
X828040Y287020D01*
X828040Y279400D02*
X828040Y271780D01*
X822960Y279400D02*
X822960Y287020D01*
X822960Y279400D02*
X822960Y271780D01*
D10*
X822960Y279400D02*
X821690Y279400D01*
D12*
X814705Y297815D02*
X812165Y297815D01*
X812065Y297817D01*
X811966Y297823D01*
X811866Y297833D01*
X811768Y297846D01*
X811669Y297864D01*
X811572Y297885D01*
X811476Y297910D01*
X811380Y297939D01*
X811286Y297972D01*
X811193Y298008D01*
X811102Y298048D01*
X811012Y298092D01*
X810924Y298139D01*
X810838Y298189D01*
X810754Y298243D01*
X810672Y298300D01*
X810593Y298360D01*
X810515Y298424D01*
X810441Y298490D01*
X810369Y298559D01*
X810300Y298631D01*
X810234Y298705D01*
X810170Y298783D01*
X810110Y298862D01*
X810053Y298944D01*
X809999Y299028D01*
X809949Y299114D01*
X809902Y299202D01*
X809858Y299292D01*
X809818Y299383D01*
X809782Y299476D01*
X809749Y299570D01*
X809720Y299666D01*
X809695Y299762D01*
X809674Y299859D01*
X809656Y299958D01*
X809643Y300056D01*
X809633Y300156D01*
X809627Y300255D01*
X809625Y300355D01*
X809625Y306705D01*
X809627Y306805D01*
X809633Y306904D01*
X809643Y307004D01*
X809656Y307102D01*
X809674Y307201D01*
X809695Y307298D01*
X809720Y307394D01*
X809749Y307490D01*
X809782Y307584D01*
X809818Y307677D01*
X809858Y307768D01*
X809902Y307858D01*
X809949Y307946D01*
X809999Y308032D01*
X810053Y308116D01*
X810110Y308198D01*
X810170Y308277D01*
X810234Y308355D01*
X810300Y308429D01*
X810369Y308501D01*
X810441Y308570D01*
X810515Y308636D01*
X810593Y308700D01*
X810672Y308760D01*
X810754Y308817D01*
X810838Y308871D01*
X810924Y308921D01*
X811012Y308968D01*
X811102Y309012D01*
X811193Y309052D01*
X811286Y309088D01*
X811380Y309121D01*
X811476Y309150D01*
X811572Y309175D01*
X811669Y309196D01*
X811768Y309214D01*
X811866Y309227D01*
X811966Y309237D01*
X812065Y309243D01*
X812165Y309245D01*
X814705Y309245D01*
X822680Y309246D02*
X822784Y309244D01*
X822889Y309238D01*
X822993Y309229D01*
X823096Y309216D01*
X823199Y309198D01*
X823301Y309178D01*
X823403Y309153D01*
X823503Y309125D01*
X823603Y309093D01*
X823701Y309057D01*
X823798Y309018D01*
X823893Y308976D01*
X823987Y308930D01*
X824079Y308880D01*
X824169Y308828D01*
X824257Y308772D01*
X824343Y308712D01*
X824427Y308650D01*
X824508Y308585D01*
X824587Y308517D01*
X824664Y308445D01*
X824737Y308372D01*
X824809Y308295D01*
X824877Y308216D01*
X824942Y308135D01*
X825004Y308051D01*
X825064Y307965D01*
X825120Y307877D01*
X825172Y307787D01*
X825222Y307695D01*
X825268Y307601D01*
X825310Y307506D01*
X825349Y307409D01*
X825385Y307311D01*
X825417Y307211D01*
X825445Y307111D01*
X825470Y307009D01*
X825490Y306907D01*
X825508Y306804D01*
X825521Y306701D01*
X825530Y306597D01*
X825536Y306492D01*
X825538Y306388D01*
X822680Y309245D02*
X822562Y309243D01*
X822443Y309237D01*
X822325Y309228D01*
X822208Y309215D01*
X822091Y309197D01*
X821974Y309177D01*
X821858Y309152D01*
X821743Y309124D01*
X821630Y309091D01*
X821517Y309056D01*
X821405Y309016D01*
X821295Y308974D01*
X821186Y308927D01*
X821078Y308877D01*
X820973Y308824D01*
X820869Y308767D01*
X820767Y308707D01*
X820667Y308644D01*
X820569Y308577D01*
X820473Y308508D01*
X820380Y308435D01*
X820289Y308359D01*
X820200Y308281D01*
X820114Y308199D01*
X820031Y308115D01*
X819950Y308029D01*
X819873Y307939D01*
X819798Y307848D01*
X819726Y307754D01*
X819657Y307657D01*
X819592Y307559D01*
X819529Y307458D01*
X819470Y307355D01*
X819414Y307251D01*
X819362Y307145D01*
X819313Y307037D01*
X819268Y306928D01*
X819226Y306817D01*
X819188Y306705D01*
X824585Y304166D02*
X824661Y304241D01*
X824736Y304320D01*
X824807Y304401D01*
X824876Y304485D01*
X824941Y304571D01*
X825003Y304659D01*
X825063Y304749D01*
X825119Y304841D01*
X825172Y304936D01*
X825221Y305032D01*
X825267Y305130D01*
X825310Y305229D01*
X825349Y305330D01*
X825384Y305432D01*
X825416Y305535D01*
X825444Y305639D01*
X825469Y305744D01*
X825490Y305851D01*
X825507Y305957D01*
X825520Y306064D01*
X825529Y306172D01*
X825535Y306280D01*
X825537Y306388D01*
X824585Y304165D02*
X819187Y297815D01*
X825537Y297815D01*
D13*
X48400Y477700D02*
X48400Y563700D01*
X191400Y563700D01*
X191400Y547700D01*
X191400Y493700D02*
X191400Y477700D01*
X127900Y477700D02*
X48400Y477700D01*
X175400Y477700D02*
X191400Y477700D01*
D14*
X55203Y469392D02*
X55203Y460304D01*
X55202Y460304D02*
X55200Y460205D01*
X55194Y460105D01*
X55185Y460006D01*
X55172Y459908D01*
X55155Y459810D01*
X55134Y459712D01*
X55109Y459616D01*
X55081Y459521D01*
X55049Y459427D01*
X55014Y459334D01*
X54975Y459242D01*
X54932Y459152D01*
X54887Y459064D01*
X54837Y458977D01*
X54785Y458893D01*
X54729Y458810D01*
X54671Y458730D01*
X54609Y458652D01*
X54544Y458577D01*
X54476Y458504D01*
X54406Y458434D01*
X54333Y458366D01*
X54258Y458301D01*
X54180Y458239D01*
X54100Y458181D01*
X54017Y458125D01*
X53933Y458073D01*
X53846Y458023D01*
X53758Y457978D01*
X53668Y457935D01*
X53576Y457896D01*
X53483Y457861D01*
X53389Y457829D01*
X53294Y457801D01*
X53198Y457776D01*
X53100Y457755D01*
X53002Y457738D01*
X52904Y457725D01*
X52805Y457716D01*
X52705Y457710D01*
X52606Y457708D01*
X51308Y457708D01*
X60476Y466796D02*
X63722Y469392D01*
X63722Y457708D01*
X66967Y457708D02*
X60476Y457708D01*
D13*
X463550Y266700D02*
X501650Y266700D01*
D11*
X502266Y267174D01*
X502871Y267663D01*
X503463Y268167D01*
X504043Y268685D01*
X504610Y269217D01*
X505164Y269763D01*
X505704Y270322D01*
X506230Y270895D01*
X506743Y271480D01*
X507240Y272077D01*
X507723Y272686D01*
X508191Y273307D01*
X508644Y273940D01*
X509081Y274583D01*
X509502Y275237D01*
X509906Y275901D01*
X510295Y276574D01*
X510667Y277257D01*
X511022Y277949D01*
X511360Y278649D01*
X511681Y279357D01*
X511984Y280073D01*
X512270Y280797D01*
X512538Y281526D01*
X512788Y282263D01*
X513019Y283005D01*
X513233Y283753D01*
X513428Y284505D01*
X513605Y285263D01*
X513763Y286024D01*
X513903Y286789D01*
X514023Y287557D01*
X514125Y288328D01*
X514208Y289101D01*
X514272Y289876D01*
X514317Y290652D01*
X514343Y291429D01*
X514350Y292207D01*
X514338Y292984D01*
X514307Y293761D01*
X514256Y294537D01*
X514187Y295312D01*
X514099Y296084D01*
X513992Y296854D01*
X513866Y297622D01*
X513722Y298386D01*
X513558Y299146D01*
X513376Y299902D01*
X513176Y300653D01*
X512958Y301400D01*
X512721Y302140D01*
X512466Y302875D01*
X512193Y303603D01*
X511902Y304324D01*
X511594Y305038D01*
X511269Y305744D01*
X510926Y306442D01*
X510566Y307132D01*
X510190Y307812D01*
X509797Y308483D01*
X509387Y309144D01*
X508962Y309795D01*
X508521Y310435D01*
X508064Y311064D01*
X507592Y311682D01*
X507105Y312288D01*
X506603Y312882D01*
X506087Y313464D01*
X505557Y314033D01*
X505013Y314588D01*
X504455Y315131D01*
X503885Y315659D01*
X503302Y316173D01*
X502706Y316673D01*
X502098Y317158D01*
X501479Y317628D01*
X500848Y318082D01*
X500206Y318521D01*
X499554Y318945D01*
X498891Y319352D01*
X498219Y319743D01*
X497537Y320117D01*
X496847Y320474D01*
X496148Y320814D01*
X495440Y321138D01*
X494726Y321443D01*
X494003Y321732D01*
X493274Y322002D01*
X492539Y322254D01*
X491797Y322489D01*
X491050Y322705D01*
X490298Y322903D01*
X489542Y323082D01*
X488781Y323243D01*
X488017Y323385D01*
X487249Y323508D01*
X486478Y323612D01*
X485705Y323698D01*
X484931Y323764D01*
X484155Y323812D01*
X483378Y323840D01*
X482600Y323850D01*
X481822Y323840D01*
X481045Y323812D01*
X480269Y323764D01*
X479495Y323698D01*
X478722Y323612D01*
X477951Y323508D01*
X477183Y323385D01*
X476419Y323243D01*
X475658Y323082D01*
X474902Y322903D01*
X474150Y322705D01*
X473403Y322489D01*
X472661Y322254D01*
X471926Y322002D01*
X471197Y321732D01*
X470474Y321443D01*
X469760Y321138D01*
X469052Y320814D01*
X468353Y320474D01*
X467663Y320117D01*
X466981Y319743D01*
X466309Y319352D01*
X465646Y318945D01*
X464994Y318521D01*
X464352Y318082D01*
X463721Y317628D01*
X463102Y317158D01*
X462494Y316673D01*
X461898Y316173D01*
X461315Y315659D01*
X460745Y315131D01*
X460187Y314588D01*
X459643Y314033D01*
X459113Y313464D01*
X458597Y312882D01*
X458095Y312288D01*
X457608Y311682D01*
X457136Y311064D01*
X456679Y310435D01*
X456238Y309795D01*
X455813Y309144D01*
X455403Y308483D01*
X455010Y307812D01*
X454634Y307132D01*
X454274Y306442D01*
X453931Y305744D01*
X453606Y305038D01*
X453298Y304324D01*
X453007Y303603D01*
X452734Y302875D01*
X452479Y302140D01*
X452242Y301400D01*
X452024Y300653D01*
X451824Y299902D01*
X451642Y299146D01*
X451478Y298386D01*
X451334Y297622D01*
X451208Y296854D01*
X451101Y296084D01*
X451013Y295312D01*
X450944Y294537D01*
X450893Y293761D01*
X450862Y292984D01*
X450850Y292207D01*
X450857Y291429D01*
X450883Y290652D01*
X450928Y289876D01*
X450992Y289101D01*
X451075Y288328D01*
X451177Y287557D01*
X451297Y286789D01*
X451437Y286024D01*
X451595Y285263D01*
X451772Y284505D01*
X451967Y283753D01*
X452181Y283005D01*
X452412Y282263D01*
X452662Y281526D01*
X452930Y280797D01*
X453216Y280073D01*
X453519Y279357D01*
X453840Y278649D01*
X454178Y277949D01*
X454533Y277257D01*
X454905Y276574D01*
X455294Y275901D01*
X455698Y275237D01*
X456119Y274583D01*
X456556Y273940D01*
X457009Y273307D01*
X457477Y272686D01*
X457960Y272077D01*
X458457Y271480D01*
X458970Y270895D01*
X459496Y270322D01*
X460036Y269763D01*
X460590Y269217D01*
X461157Y268685D01*
X461737Y268167D01*
X462329Y267663D01*
X462934Y267174D01*
X463550Y266700D01*
D10*
X457200Y292100D02*
X457208Y292723D01*
X457231Y293346D01*
X457269Y293969D01*
X457322Y294590D01*
X457391Y295209D01*
X457475Y295827D01*
X457574Y296442D01*
X457688Y297055D01*
X457817Y297665D01*
X457961Y298272D01*
X458120Y298875D01*
X458294Y299473D01*
X458482Y300068D01*
X458685Y300657D01*
X458902Y301241D01*
X459133Y301820D01*
X459379Y302393D01*
X459639Y302960D01*
X459912Y303520D01*
X460199Y304073D01*
X460500Y304620D01*
X460814Y305158D01*
X461141Y305689D01*
X461481Y306211D01*
X461833Y306726D01*
X462199Y307231D01*
X462576Y307727D01*
X462966Y308214D01*
X463367Y308691D01*
X463780Y309158D01*
X464204Y309614D01*
X464639Y310061D01*
X465086Y310496D01*
X465542Y310920D01*
X466009Y311333D01*
X466486Y311734D01*
X466973Y312124D01*
X467469Y312501D01*
X467974Y312867D01*
X468489Y313219D01*
X469011Y313559D01*
X469542Y313886D01*
X470080Y314200D01*
X470627Y314501D01*
X471180Y314788D01*
X471740Y315061D01*
X472307Y315321D01*
X472880Y315567D01*
X473459Y315798D01*
X474043Y316015D01*
X474632Y316218D01*
X475227Y316406D01*
X475825Y316580D01*
X476428Y316739D01*
X477035Y316883D01*
X477645Y317012D01*
X478258Y317126D01*
X478873Y317225D01*
X479491Y317309D01*
X480110Y317378D01*
X480731Y317431D01*
X481354Y317469D01*
X481977Y317492D01*
X482600Y317500D01*
X483223Y317492D01*
X483846Y317469D01*
X484469Y317431D01*
X485090Y317378D01*
X485709Y317309D01*
X486327Y317225D01*
X486942Y317126D01*
X487555Y317012D01*
X488165Y316883D01*
X488772Y316739D01*
X489375Y316580D01*
X489973Y316406D01*
X490568Y316218D01*
X491157Y316015D01*
X491741Y315798D01*
X492320Y315567D01*
X492893Y315321D01*
X493460Y315061D01*
X494020Y314788D01*
X494573Y314501D01*
X495120Y314200D01*
X495658Y313886D01*
X496189Y313559D01*
X496711Y313219D01*
X497226Y312867D01*
X497731Y312501D01*
X498227Y312124D01*
X498714Y311734D01*
X499191Y311333D01*
X499658Y310920D01*
X500114Y310496D01*
X500561Y310061D01*
X500996Y309614D01*
X501420Y309158D01*
X501833Y308691D01*
X502234Y308214D01*
X502624Y307727D01*
X503001Y307231D01*
X503367Y306726D01*
X503719Y306211D01*
X504059Y305689D01*
X504386Y305158D01*
X504700Y304620D01*
X505001Y304073D01*
X505288Y303520D01*
X505561Y302960D01*
X505821Y302393D01*
X506067Y301820D01*
X506298Y301241D01*
X506515Y300657D01*
X506718Y300068D01*
X506906Y299473D01*
X507080Y298875D01*
X507239Y298272D01*
X507383Y297665D01*
X507512Y297055D01*
X507626Y296442D01*
X507725Y295827D01*
X507809Y295209D01*
X507878Y294590D01*
X507931Y293969D01*
X507969Y293346D01*
X507992Y292723D01*
X508000Y292100D01*
X507992Y291477D01*
X507969Y290854D01*
X507931Y290231D01*
X507878Y289610D01*
X507809Y288991D01*
X507725Y288373D01*
X507626Y287758D01*
X507512Y287145D01*
X507383Y286535D01*
X507239Y285928D01*
X507080Y285325D01*
X506906Y284727D01*
X506718Y284132D01*
X506515Y283543D01*
X506298Y282959D01*
X506067Y282380D01*
X505821Y281807D01*
X505561Y281240D01*
X505288Y280680D01*
X505001Y280127D01*
X504700Y279580D01*
X504386Y279042D01*
X504059Y278511D01*
X503719Y277989D01*
X503367Y277474D01*
X503001Y276969D01*
X502624Y276473D01*
X502234Y275986D01*
X501833Y275509D01*
X501420Y275042D01*
X500996Y274586D01*
X500561Y274139D01*
X500114Y273704D01*
X499658Y273280D01*
X499191Y272867D01*
X498714Y272466D01*
X498227Y272076D01*
X497731Y271699D01*
X497226Y271333D01*
X496711Y270981D01*
X496189Y270641D01*
X495658Y270314D01*
X495120Y270000D01*
X494573Y269699D01*
X494020Y269412D01*
X493460Y269139D01*
X492893Y268879D01*
X492320Y268633D01*
X491741Y268402D01*
X491157Y268185D01*
X490568Y267982D01*
X489973Y267794D01*
X489375Y267620D01*
X488772Y267461D01*
X488165Y267317D01*
X487555Y267188D01*
X486942Y267074D01*
X486327Y266975D01*
X485709Y266891D01*
X485090Y266822D01*
X484469Y266769D01*
X483846Y266731D01*
X483223Y266708D01*
X482600Y266700D01*
X481977Y266708D01*
X481354Y266731D01*
X480731Y266769D01*
X480110Y266822D01*
X479491Y266891D01*
X478873Y266975D01*
X478258Y267074D01*
X477645Y267188D01*
X477035Y267317D01*
X476428Y267461D01*
X475825Y267620D01*
X475227Y267794D01*
X474632Y267982D01*
X474043Y268185D01*
X473459Y268402D01*
X472880Y268633D01*
X472307Y268879D01*
X471740Y269139D01*
X471180Y269412D01*
X470627Y269699D01*
X470080Y270000D01*
X469542Y270314D01*
X469011Y270641D01*
X468489Y270981D01*
X467974Y271333D01*
X467469Y271699D01*
X466973Y272076D01*
X466486Y272466D01*
X466009Y272867D01*
X465542Y273280D01*
X465086Y273704D01*
X464639Y274139D01*
X464204Y274586D01*
X463780Y275042D01*
X463367Y275509D01*
X462966Y275986D01*
X462576Y276473D01*
X462199Y276969D01*
X461833Y277474D01*
X461481Y277989D01*
X461141Y278511D01*
X460814Y279042D01*
X460500Y279580D01*
X460199Y280127D01*
X459912Y280680D01*
X459639Y281240D01*
X459379Y281807D01*
X459133Y282380D01*
X458902Y282959D01*
X458685Y283543D01*
X458482Y284132D01*
X458294Y284727D01*
X458120Y285325D01*
X457961Y285928D01*
X457817Y286535D01*
X457688Y287145D01*
X457574Y287758D01*
X457475Y288373D01*
X457391Y288991D01*
X457322Y289610D01*
X457269Y290231D01*
X457231Y290854D01*
X457208Y291477D01*
X457200Y292100D01*
D12*
X488569Y221767D02*
X499999Y221767D01*
X499999Y226847D01*
X499999Y231673D02*
X499999Y236753D01*
X499999Y231673D02*
X488569Y231673D01*
X488569Y236753D01*
X493649Y235483D02*
X493649Y231673D01*
X488569Y241554D02*
X499999Y241554D01*
X488569Y241554D02*
X488569Y244729D01*
X488571Y244840D01*
X488577Y244950D01*
X488586Y245061D01*
X488600Y245171D01*
X488617Y245280D01*
X488638Y245389D01*
X488663Y245497D01*
X488692Y245604D01*
X488724Y245710D01*
X488760Y245815D01*
X488800Y245918D01*
X488843Y246020D01*
X488890Y246121D01*
X488941Y246220D01*
X488994Y246317D01*
X489051Y246411D01*
X489112Y246504D01*
X489175Y246595D01*
X489242Y246684D01*
X489312Y246770D01*
X489385Y246853D01*
X489460Y246935D01*
X489538Y247013D01*
X489620Y247088D01*
X489703Y247161D01*
X489789Y247231D01*
X489878Y247298D01*
X489969Y247361D01*
X490062Y247422D01*
X490157Y247479D01*
X490253Y247532D01*
X490352Y247583D01*
X490453Y247630D01*
X490555Y247673D01*
X490658Y247713D01*
X490763Y247749D01*
X490869Y247781D01*
X490976Y247810D01*
X491084Y247835D01*
X491193Y247856D01*
X491302Y247873D01*
X491412Y247887D01*
X491523Y247896D01*
X491633Y247902D01*
X491744Y247904D01*
X496824Y247904D01*
X496935Y247902D01*
X497045Y247896D01*
X497156Y247887D01*
X497266Y247873D01*
X497375Y247856D01*
X497484Y247835D01*
X497592Y247810D01*
X497699Y247781D01*
X497805Y247749D01*
X497910Y247713D01*
X498013Y247673D01*
X498115Y247630D01*
X498216Y247583D01*
X498315Y247532D01*
X498412Y247479D01*
X498506Y247422D01*
X498599Y247361D01*
X498690Y247298D01*
X498779Y247231D01*
X498865Y247161D01*
X498948Y247088D01*
X499030Y247013D01*
X499108Y246935D01*
X499183Y246853D01*
X499256Y246770D01*
X499326Y246684D01*
X499393Y246595D01*
X499456Y246504D01*
X499517Y246411D01*
X499574Y246317D01*
X499627Y246220D01*
X499678Y246121D01*
X499725Y246020D01*
X499768Y245918D01*
X499808Y245815D01*
X499844Y245710D01*
X499876Y245604D01*
X499905Y245497D01*
X499930Y245389D01*
X499951Y245280D01*
X499968Y245171D01*
X499982Y245061D01*
X499991Y244950D01*
X499997Y244840D01*
X499999Y244729D01*
X499999Y241554D01*
X491109Y253365D02*
X488569Y256540D01*
X499999Y256540D01*
X499999Y253365D02*
X499999Y259715D01*
D13*
X958850Y266700D02*
X996950Y266700D01*
D11*
X997566Y267174D01*
X998171Y267663D01*
X998763Y268167D01*
X999343Y268685D01*
X999910Y269217D01*
X1000464Y269763D01*
X1001004Y270322D01*
X1001530Y270895D01*
X1002043Y271480D01*
X1002540Y272077D01*
X1003023Y272686D01*
X1003491Y273307D01*
X1003944Y273940D01*
X1004381Y274583D01*
X1004802Y275237D01*
X1005206Y275901D01*
X1005595Y276574D01*
X1005967Y277257D01*
X1006322Y277949D01*
X1006660Y278649D01*
X1006981Y279357D01*
X1007284Y280073D01*
X1007570Y280797D01*
X1007838Y281526D01*
X1008088Y282263D01*
X1008319Y283005D01*
X1008533Y283753D01*
X1008728Y284505D01*
X1008905Y285263D01*
X1009063Y286024D01*
X1009203Y286789D01*
X1009323Y287557D01*
X1009425Y288328D01*
X1009508Y289101D01*
X1009572Y289876D01*
X1009617Y290652D01*
X1009643Y291429D01*
X1009650Y292207D01*
X1009638Y292984D01*
X1009607Y293761D01*
X1009556Y294537D01*
X1009487Y295312D01*
X1009399Y296084D01*
X1009292Y296854D01*
X1009166Y297622D01*
X1009022Y298386D01*
X1008858Y299146D01*
X1008676Y299902D01*
X1008476Y300653D01*
X1008258Y301400D01*
X1008021Y302140D01*
X1007766Y302875D01*
X1007493Y303603D01*
X1007202Y304324D01*
X1006894Y305038D01*
X1006569Y305744D01*
X1006226Y306442D01*
X1005866Y307132D01*
X1005490Y307812D01*
X1005097Y308483D01*
X1004687Y309144D01*
X1004262Y309795D01*
X1003821Y310435D01*
X1003364Y311064D01*
X1002892Y311682D01*
X1002405Y312288D01*
X1001903Y312882D01*
X1001387Y313464D01*
X1000857Y314033D01*
X1000313Y314588D01*
X999755Y315131D01*
X999185Y315659D01*
X998602Y316173D01*
X998006Y316673D01*
X997398Y317158D01*
X996779Y317628D01*
X996148Y318082D01*
X995506Y318521D01*
X994854Y318945D01*
X994191Y319352D01*
X993519Y319743D01*
X992837Y320117D01*
X992147Y320474D01*
X991448Y320814D01*
X990740Y321138D01*
X990026Y321443D01*
X989303Y321732D01*
X988574Y322002D01*
X987839Y322254D01*
X987097Y322489D01*
X986350Y322705D01*
X985598Y322903D01*
X984842Y323082D01*
X984081Y323243D01*
X983317Y323385D01*
X982549Y323508D01*
X981778Y323612D01*
X981005Y323698D01*
X980231Y323764D01*
X979455Y323812D01*
X978678Y323840D01*
X977900Y323850D01*
X977122Y323840D01*
X976345Y323812D01*
X975569Y323764D01*
X974795Y323698D01*
X974022Y323612D01*
X973251Y323508D01*
X972483Y323385D01*
X971719Y323243D01*
X970958Y323082D01*
X970202Y322903D01*
X969450Y322705D01*
X968703Y322489D01*
X967961Y322254D01*
X967226Y322002D01*
X966497Y321732D01*
X965774Y321443D01*
X965060Y321138D01*
X964352Y320814D01*
X963653Y320474D01*
X962963Y320117D01*
X962281Y319743D01*
X961609Y319352D01*
X960946Y318945D01*
X960294Y318521D01*
X959652Y318082D01*
X959021Y317628D01*
X958402Y317158D01*
X957794Y316673D01*
X957198Y316173D01*
X956615Y315659D01*
X956045Y315131D01*
X955487Y314588D01*
X954943Y314033D01*
X954413Y313464D01*
X953897Y312882D01*
X953395Y312288D01*
X952908Y311682D01*
X952436Y311064D01*
X951979Y310435D01*
X951538Y309795D01*
X951113Y309144D01*
X950703Y308483D01*
X950310Y307812D01*
X949934Y307132D01*
X949574Y306442D01*
X949231Y305744D01*
X948906Y305038D01*
X948598Y304324D01*
X948307Y303603D01*
X948034Y302875D01*
X947779Y302140D01*
X947542Y301400D01*
X947324Y300653D01*
X947124Y299902D01*
X946942Y299146D01*
X946778Y298386D01*
X946634Y297622D01*
X946508Y296854D01*
X946401Y296084D01*
X946313Y295312D01*
X946244Y294537D01*
X946193Y293761D01*
X946162Y292984D01*
X946150Y292207D01*
X946157Y291429D01*
X946183Y290652D01*
X946228Y289876D01*
X946292Y289101D01*
X946375Y288328D01*
X946477Y287557D01*
X946597Y286789D01*
X946737Y286024D01*
X946895Y285263D01*
X947072Y284505D01*
X947267Y283753D01*
X947481Y283005D01*
X947712Y282263D01*
X947962Y281526D01*
X948230Y280797D01*
X948516Y280073D01*
X948819Y279357D01*
X949140Y278649D01*
X949478Y277949D01*
X949833Y277257D01*
X950205Y276574D01*
X950594Y275901D01*
X950998Y275237D01*
X951419Y274583D01*
X951856Y273940D01*
X952309Y273307D01*
X952777Y272686D01*
X953260Y272077D01*
X953757Y271480D01*
X954270Y270895D01*
X954796Y270322D01*
X955336Y269763D01*
X955890Y269217D01*
X956457Y268685D01*
X957037Y268167D01*
X957629Y267663D01*
X958234Y267174D01*
X958850Y266700D01*
D10*
X952500Y292100D02*
X952508Y292723D01*
X952531Y293346D01*
X952569Y293969D01*
X952622Y294590D01*
X952691Y295209D01*
X952775Y295827D01*
X952874Y296442D01*
X952988Y297055D01*
X953117Y297665D01*
X953261Y298272D01*
X953420Y298875D01*
X953594Y299473D01*
X953782Y300068D01*
X953985Y300657D01*
X954202Y301241D01*
X954433Y301820D01*
X954679Y302393D01*
X954939Y302960D01*
X955212Y303520D01*
X955499Y304073D01*
X955800Y304620D01*
X956114Y305158D01*
X956441Y305689D01*
X956781Y306211D01*
X957133Y306726D01*
X957499Y307231D01*
X957876Y307727D01*
X958266Y308214D01*
X958667Y308691D01*
X959080Y309158D01*
X959504Y309614D01*
X959939Y310061D01*
X960386Y310496D01*
X960842Y310920D01*
X961309Y311333D01*
X961786Y311734D01*
X962273Y312124D01*
X962769Y312501D01*
X963274Y312867D01*
X963789Y313219D01*
X964311Y313559D01*
X964842Y313886D01*
X965380Y314200D01*
X965927Y314501D01*
X966480Y314788D01*
X967040Y315061D01*
X967607Y315321D01*
X968180Y315567D01*
X968759Y315798D01*
X969343Y316015D01*
X969932Y316218D01*
X970527Y316406D01*
X971125Y316580D01*
X971728Y316739D01*
X972335Y316883D01*
X972945Y317012D01*
X973558Y317126D01*
X974173Y317225D01*
X974791Y317309D01*
X975410Y317378D01*
X976031Y317431D01*
X976654Y317469D01*
X977277Y317492D01*
X977900Y317500D01*
X978523Y317492D01*
X979146Y317469D01*
X979769Y317431D01*
X980390Y317378D01*
X981009Y317309D01*
X981627Y317225D01*
X982242Y317126D01*
X982855Y317012D01*
X983465Y316883D01*
X984072Y316739D01*
X984675Y316580D01*
X985273Y316406D01*
X985868Y316218D01*
X986457Y316015D01*
X987041Y315798D01*
X987620Y315567D01*
X988193Y315321D01*
X988760Y315061D01*
X989320Y314788D01*
X989873Y314501D01*
X990420Y314200D01*
X990958Y313886D01*
X991489Y313559D01*
X992011Y313219D01*
X992526Y312867D01*
X993031Y312501D01*
X993527Y312124D01*
X994014Y311734D01*
X994491Y311333D01*
X994958Y310920D01*
X995414Y310496D01*
X995861Y310061D01*
X996296Y309614D01*
X996720Y309158D01*
X997133Y308691D01*
X997534Y308214D01*
X997924Y307727D01*
X998301Y307231D01*
X998667Y306726D01*
X999019Y306211D01*
X999359Y305689D01*
X999686Y305158D01*
X1000000Y304620D01*
X1000301Y304073D01*
X1000588Y303520D01*
X1000861Y302960D01*
X1001121Y302393D01*
X1001367Y301820D01*
X1001598Y301241D01*
X1001815Y300657D01*
X1002018Y300068D01*
X1002206Y299473D01*
X1002380Y298875D01*
X1002539Y298272D01*
X1002683Y297665D01*
X1002812Y297055D01*
X1002926Y296442D01*
X1003025Y295827D01*
X1003109Y295209D01*
X1003178Y294590D01*
X1003231Y293969D01*
X1003269Y293346D01*
X1003292Y292723D01*
X1003300Y292100D01*
X1003292Y291477D01*
X1003269Y290854D01*
X1003231Y290231D01*
X1003178Y289610D01*
X1003109Y288991D01*
X1003025Y288373D01*
X1002926Y287758D01*
X1002812Y287145D01*
X1002683Y286535D01*
X1002539Y285928D01*
X1002380Y285325D01*
X1002206Y284727D01*
X1002018Y284132D01*
X1001815Y283543D01*
X1001598Y282959D01*
X1001367Y282380D01*
X1001121Y281807D01*
X1000861Y281240D01*
X1000588Y280680D01*
X1000301Y280127D01*
X1000000Y279580D01*
X999686Y279042D01*
X999359Y278511D01*
X999019Y277989D01*
X998667Y277474D01*
X998301Y276969D01*
X997924Y276473D01*
X997534Y275986D01*
X997133Y275509D01*
X996720Y275042D01*
X996296Y274586D01*
X995861Y274139D01*
X995414Y273704D01*
X994958Y273280D01*
X994491Y272867D01*
X994014Y272466D01*
X993527Y272076D01*
X993031Y271699D01*
X992526Y271333D01*
X992011Y270981D01*
X991489Y270641D01*
X990958Y270314D01*
X990420Y270000D01*
X989873Y269699D01*
X989320Y269412D01*
X988760Y269139D01*
X988193Y268879D01*
X987620Y268633D01*
X987041Y268402D01*
X986457Y268185D01*
X985868Y267982D01*
X985273Y267794D01*
X984675Y267620D01*
X984072Y267461D01*
X983465Y267317D01*
X982855Y267188D01*
X982242Y267074D01*
X981627Y266975D01*
X981009Y266891D01*
X980390Y266822D01*
X979769Y266769D01*
X979146Y266731D01*
X978523Y266708D01*
X977900Y266700D01*
X977277Y266708D01*
X976654Y266731D01*
X976031Y266769D01*
X975410Y266822D01*
X974791Y266891D01*
X974173Y266975D01*
X973558Y267074D01*
X972945Y267188D01*
X972335Y267317D01*
X971728Y267461D01*
X971125Y267620D01*
X970527Y267794D01*
X969932Y267982D01*
X969343Y268185D01*
X968759Y268402D01*
X968180Y268633D01*
X967607Y268879D01*
X967040Y269139D01*
X966480Y269412D01*
X965927Y269699D01*
X965380Y270000D01*
X964842Y270314D01*
X964311Y270641D01*
X963789Y270981D01*
X963274Y271333D01*
X962769Y271699D01*
X962273Y272076D01*
X961786Y272466D01*
X961309Y272867D01*
X960842Y273280D01*
X960386Y273704D01*
X959939Y274139D01*
X959504Y274586D01*
X959080Y275042D01*
X958667Y275509D01*
X958266Y275986D01*
X957876Y276473D01*
X957499Y276969D01*
X957133Y277474D01*
X956781Y277989D01*
X956441Y278511D01*
X956114Y279042D01*
X955800Y279580D01*
X955499Y280127D01*
X955212Y280680D01*
X954939Y281240D01*
X954679Y281807D01*
X954433Y282380D01*
X954202Y282959D01*
X953985Y283543D01*
X953782Y284132D01*
X953594Y284727D01*
X953420Y285325D01*
X953261Y285928D01*
X953117Y286535D01*
X952988Y287145D01*
X952874Y287758D01*
X952775Y288373D01*
X952691Y288991D01*
X952622Y289610D01*
X952569Y290231D01*
X952531Y290854D01*
X952508Y291477D01*
X952500Y292100D01*
D12*
X983869Y221767D02*
X995299Y221767D01*
X995299Y226847D01*
X995299Y231673D02*
X995299Y236753D01*
X995299Y231673D02*
X983869Y231673D01*
X983869Y236753D01*
X988949Y235483D02*
X988949Y231673D01*
X983869Y241554D02*
X995299Y241554D01*
X983869Y241554D02*
X983869Y244729D01*
X983871Y244840D01*
X983877Y244950D01*
X983886Y245061D01*
X983900Y245171D01*
X983917Y245280D01*
X983938Y245389D01*
X983963Y245497D01*
X983992Y245604D01*
X984024Y245710D01*
X984060Y245815D01*
X984100Y245918D01*
X984143Y246020D01*
X984190Y246121D01*
X984241Y246220D01*
X984294Y246317D01*
X984351Y246411D01*
X984412Y246504D01*
X984475Y246595D01*
X984542Y246684D01*
X984612Y246770D01*
X984685Y246853D01*
X984760Y246935D01*
X984838Y247013D01*
X984920Y247088D01*
X985003Y247161D01*
X985089Y247231D01*
X985178Y247298D01*
X985269Y247361D01*
X985362Y247422D01*
X985457Y247479D01*
X985553Y247532D01*
X985652Y247583D01*
X985753Y247630D01*
X985855Y247673D01*
X985958Y247713D01*
X986063Y247749D01*
X986169Y247781D01*
X986276Y247810D01*
X986384Y247835D01*
X986493Y247856D01*
X986602Y247873D01*
X986712Y247887D01*
X986823Y247896D01*
X986933Y247902D01*
X987044Y247904D01*
X992124Y247904D01*
X992235Y247902D01*
X992345Y247896D01*
X992456Y247887D01*
X992566Y247873D01*
X992675Y247856D01*
X992784Y247835D01*
X992892Y247810D01*
X992999Y247781D01*
X993105Y247749D01*
X993210Y247713D01*
X993313Y247673D01*
X993415Y247630D01*
X993516Y247583D01*
X993615Y247532D01*
X993712Y247479D01*
X993806Y247422D01*
X993899Y247361D01*
X993990Y247298D01*
X994079Y247231D01*
X994165Y247161D01*
X994248Y247088D01*
X994330Y247013D01*
X994408Y246935D01*
X994483Y246853D01*
X994556Y246770D01*
X994626Y246684D01*
X994693Y246595D01*
X994756Y246504D01*
X994817Y246411D01*
X994874Y246317D01*
X994927Y246220D01*
X994978Y246121D01*
X995025Y246020D01*
X995068Y245918D01*
X995108Y245815D01*
X995144Y245710D01*
X995176Y245604D01*
X995205Y245497D01*
X995230Y245389D01*
X995251Y245280D01*
X995268Y245171D01*
X995282Y245061D01*
X995291Y244950D01*
X995297Y244840D01*
X995299Y244729D01*
X995299Y241554D01*
X983869Y256858D02*
X983871Y256962D01*
X983877Y257067D01*
X983886Y257171D01*
X983899Y257274D01*
X983917Y257377D01*
X983937Y257479D01*
X983962Y257581D01*
X983990Y257681D01*
X984022Y257781D01*
X984058Y257879D01*
X984097Y257976D01*
X984139Y258071D01*
X984185Y258165D01*
X984235Y258257D01*
X984287Y258347D01*
X984343Y258435D01*
X984403Y258521D01*
X984465Y258605D01*
X984530Y258686D01*
X984598Y258765D01*
X984670Y258842D01*
X984743Y258915D01*
X984820Y258987D01*
X984899Y259055D01*
X984980Y259120D01*
X985064Y259182D01*
X985150Y259242D01*
X985238Y259298D01*
X985328Y259350D01*
X985420Y259400D01*
X985514Y259446D01*
X985609Y259488D01*
X985706Y259527D01*
X985804Y259563D01*
X985904Y259595D01*
X986004Y259623D01*
X986106Y259648D01*
X986208Y259668D01*
X986311Y259686D01*
X986414Y259699D01*
X986518Y259708D01*
X986623Y259714D01*
X986727Y259716D01*
X983869Y256858D02*
X983871Y256740D01*
X983877Y256621D01*
X983886Y256503D01*
X983899Y256386D01*
X983917Y256269D01*
X983937Y256152D01*
X983962Y256036D01*
X983990Y255921D01*
X984023Y255808D01*
X984058Y255695D01*
X984098Y255583D01*
X984140Y255473D01*
X984187Y255364D01*
X984237Y255256D01*
X984290Y255151D01*
X984347Y255047D01*
X984407Y254945D01*
X984470Y254845D01*
X984537Y254747D01*
X984606Y254651D01*
X984679Y254558D01*
X984755Y254467D01*
X984833Y254378D01*
X984915Y254292D01*
X984999Y254209D01*
X985085Y254128D01*
X985175Y254051D01*
X985266Y253976D01*
X985360Y253904D01*
X985457Y253835D01*
X985555Y253770D01*
X985656Y253707D01*
X985759Y253648D01*
X985863Y253592D01*
X985969Y253540D01*
X986077Y253491D01*
X986186Y253446D01*
X986297Y253404D01*
X986409Y253366D01*
X988949Y258763D02*
X988874Y258839D01*
X988795Y258914D01*
X988714Y258985D01*
X988630Y259054D01*
X988544Y259119D01*
X988456Y259181D01*
X988366Y259241D01*
X988274Y259297D01*
X988179Y259350D01*
X988083Y259399D01*
X987985Y259445D01*
X987886Y259488D01*
X987785Y259527D01*
X987683Y259562D01*
X987580Y259594D01*
X987476Y259622D01*
X987371Y259647D01*
X987264Y259668D01*
X987158Y259685D01*
X987051Y259698D01*
X986943Y259707D01*
X986835Y259713D01*
X986727Y259715D01*
X988949Y258763D02*
X995299Y253365D01*
X995299Y259715D01*
D10*
X473710Y438150D02*
X473610Y438152D01*
X473511Y438158D01*
X473411Y438168D01*
X473313Y438181D01*
X473214Y438199D01*
X473117Y438220D01*
X473021Y438245D01*
X472925Y438274D01*
X472831Y438307D01*
X472738Y438343D01*
X472647Y438383D01*
X472557Y438427D01*
X472469Y438474D01*
X472383Y438524D01*
X472299Y438578D01*
X472217Y438635D01*
X472138Y438695D01*
X472060Y438759D01*
X471986Y438825D01*
X471914Y438894D01*
X471845Y438966D01*
X471779Y439040D01*
X471715Y439118D01*
X471655Y439197D01*
X471598Y439279D01*
X471544Y439363D01*
X471494Y439449D01*
X471447Y439537D01*
X471403Y439627D01*
X471363Y439718D01*
X471327Y439811D01*
X471294Y439905D01*
X471265Y440001D01*
X471240Y440097D01*
X471219Y440194D01*
X471201Y440293D01*
X471188Y440391D01*
X471178Y440491D01*
X471172Y440590D01*
X471170Y440690D01*
X491490Y438150D02*
X491590Y438152D01*
X491689Y438158D01*
X491789Y438168D01*
X491887Y438181D01*
X491986Y438199D01*
X492083Y438220D01*
X492179Y438245D01*
X492275Y438274D01*
X492369Y438307D01*
X492462Y438343D01*
X492553Y438383D01*
X492643Y438427D01*
X492731Y438474D01*
X492817Y438524D01*
X492901Y438578D01*
X492983Y438635D01*
X493062Y438695D01*
X493140Y438759D01*
X493214Y438825D01*
X493286Y438894D01*
X493355Y438966D01*
X493421Y439040D01*
X493485Y439118D01*
X493545Y439197D01*
X493602Y439279D01*
X493656Y439363D01*
X493706Y439449D01*
X493753Y439537D01*
X493797Y439627D01*
X493837Y439718D01*
X493873Y439811D01*
X493906Y439905D01*
X493935Y440001D01*
X493960Y440097D01*
X493981Y440194D01*
X493999Y440293D01*
X494012Y440391D01*
X494022Y440491D01*
X494028Y440590D01*
X494030Y440690D01*
X494030Y499110D02*
X494028Y499210D01*
X494022Y499309D01*
X494012Y499409D01*
X493999Y499507D01*
X493981Y499606D01*
X493960Y499703D01*
X493935Y499799D01*
X493906Y499895D01*
X493873Y499989D01*
X493837Y500082D01*
X493797Y500173D01*
X493753Y500263D01*
X493706Y500351D01*
X493656Y500437D01*
X493602Y500521D01*
X493545Y500603D01*
X493485Y500682D01*
X493421Y500760D01*
X493355Y500834D01*
X493286Y500906D01*
X493214Y500975D01*
X493140Y501041D01*
X493062Y501105D01*
X492983Y501165D01*
X492901Y501222D01*
X492817Y501276D01*
X492731Y501326D01*
X492643Y501373D01*
X492553Y501417D01*
X492462Y501457D01*
X492369Y501493D01*
X492275Y501526D01*
X492179Y501555D01*
X492083Y501580D01*
X491986Y501601D01*
X491887Y501619D01*
X491789Y501632D01*
X491689Y501642D01*
X491590Y501648D01*
X491490Y501650D01*
X473710Y501650D02*
X473610Y501648D01*
X473511Y501642D01*
X473411Y501632D01*
X473313Y501619D01*
X473214Y501601D01*
X473117Y501580D01*
X473021Y501555D01*
X472925Y501526D01*
X472831Y501493D01*
X472738Y501457D01*
X472647Y501417D01*
X472557Y501373D01*
X472469Y501326D01*
X472383Y501276D01*
X472299Y501222D01*
X472217Y501165D01*
X472138Y501105D01*
X472060Y501041D01*
X471986Y500975D01*
X471914Y500906D01*
X471845Y500834D01*
X471779Y500760D01*
X471715Y500682D01*
X471655Y500603D01*
X471598Y500521D01*
X471544Y500437D01*
X471494Y500351D01*
X471447Y500263D01*
X471403Y500173D01*
X471363Y500082D01*
X471327Y499989D01*
X471294Y499895D01*
X471265Y499799D01*
X471240Y499703D01*
X471219Y499606D01*
X471201Y499507D01*
X471188Y499409D01*
X471178Y499309D01*
X471172Y499210D01*
X471170Y499110D01*
X473710Y438150D02*
X491490Y438150D01*
X471170Y440690D02*
X471170Y444500D01*
X472440Y445770D01*
X494030Y444500D02*
X494030Y440690D01*
X494030Y444500D02*
X492760Y445770D01*
X472440Y494030D02*
X471170Y495300D01*
X472440Y494030D02*
X472440Y445770D01*
X492760Y494030D02*
X494030Y495300D01*
X492760Y494030D02*
X492760Y445770D01*
X471170Y495300D02*
X471170Y499110D01*
X494030Y499110D02*
X494030Y495300D01*
X491490Y501650D02*
X473710Y501650D01*
D12*
X466725Y440055D02*
X455295Y440055D01*
X455295Y443230D01*
X455297Y443341D01*
X455303Y443451D01*
X455312Y443562D01*
X455326Y443672D01*
X455343Y443781D01*
X455364Y443890D01*
X455389Y443998D01*
X455418Y444105D01*
X455450Y444211D01*
X455486Y444316D01*
X455526Y444419D01*
X455569Y444521D01*
X455616Y444622D01*
X455667Y444721D01*
X455720Y444818D01*
X455777Y444912D01*
X455838Y445005D01*
X455901Y445096D01*
X455968Y445185D01*
X456038Y445271D01*
X456111Y445354D01*
X456186Y445436D01*
X456264Y445514D01*
X456346Y445589D01*
X456429Y445662D01*
X456515Y445732D01*
X456604Y445799D01*
X456695Y445862D01*
X456788Y445923D01*
X456883Y445980D01*
X456979Y446033D01*
X457078Y446084D01*
X457179Y446131D01*
X457281Y446174D01*
X457384Y446214D01*
X457489Y446250D01*
X457595Y446282D01*
X457702Y446311D01*
X457810Y446336D01*
X457919Y446357D01*
X458028Y446374D01*
X458138Y446388D01*
X458249Y446397D01*
X458359Y446403D01*
X458470Y446405D01*
X458581Y446403D01*
X458691Y446397D01*
X458802Y446388D01*
X458912Y446374D01*
X459021Y446357D01*
X459130Y446336D01*
X459238Y446311D01*
X459345Y446282D01*
X459451Y446250D01*
X459556Y446214D01*
X459659Y446174D01*
X459761Y446131D01*
X459862Y446084D01*
X459961Y446033D01*
X460058Y445980D01*
X460152Y445923D01*
X460245Y445862D01*
X460336Y445799D01*
X460425Y445732D01*
X460511Y445662D01*
X460594Y445589D01*
X460676Y445514D01*
X460754Y445436D01*
X460829Y445354D01*
X460902Y445271D01*
X460972Y445185D01*
X461039Y445096D01*
X461102Y445005D01*
X461163Y444912D01*
X461220Y444818D01*
X461273Y444721D01*
X461324Y444622D01*
X461371Y444521D01*
X461414Y444419D01*
X461454Y444316D01*
X461490Y444211D01*
X461522Y444105D01*
X461551Y443998D01*
X461576Y443890D01*
X461597Y443781D01*
X461614Y443672D01*
X461628Y443562D01*
X461637Y443451D01*
X461643Y443341D01*
X461645Y443230D01*
X461645Y440055D01*
X461645Y443865D02*
X466725Y446405D01*
X457835Y451402D02*
X455295Y454577D01*
X466725Y454577D01*
X466725Y451402D02*
X466725Y457752D01*
D15*
X482600Y505968D03*
X482600Y433832D03*
D10*
X648970Y440690D02*
X648972Y440590D01*
X648978Y440491D01*
X648988Y440391D01*
X649001Y440293D01*
X649019Y440194D01*
X649040Y440097D01*
X649065Y440001D01*
X649094Y439905D01*
X649127Y439811D01*
X649163Y439718D01*
X649203Y439627D01*
X649247Y439537D01*
X649294Y439449D01*
X649344Y439363D01*
X649398Y439279D01*
X649455Y439197D01*
X649515Y439118D01*
X649579Y439040D01*
X649645Y438966D01*
X649714Y438894D01*
X649786Y438825D01*
X649860Y438759D01*
X649938Y438695D01*
X650017Y438635D01*
X650099Y438578D01*
X650183Y438524D01*
X650269Y438474D01*
X650357Y438427D01*
X650447Y438383D01*
X650538Y438343D01*
X650631Y438307D01*
X650725Y438274D01*
X650821Y438245D01*
X650917Y438220D01*
X651014Y438199D01*
X651113Y438181D01*
X651211Y438168D01*
X651311Y438158D01*
X651410Y438152D01*
X651510Y438150D01*
X669290Y438150D02*
X669390Y438152D01*
X669489Y438158D01*
X669589Y438168D01*
X669687Y438181D01*
X669786Y438199D01*
X669883Y438220D01*
X669979Y438245D01*
X670075Y438274D01*
X670169Y438307D01*
X670262Y438343D01*
X670353Y438383D01*
X670443Y438427D01*
X670531Y438474D01*
X670617Y438524D01*
X670701Y438578D01*
X670783Y438635D01*
X670862Y438695D01*
X670940Y438759D01*
X671014Y438825D01*
X671086Y438894D01*
X671155Y438966D01*
X671221Y439040D01*
X671285Y439118D01*
X671345Y439197D01*
X671402Y439279D01*
X671456Y439363D01*
X671506Y439449D01*
X671553Y439537D01*
X671597Y439627D01*
X671637Y439718D01*
X671673Y439811D01*
X671706Y439905D01*
X671735Y440001D01*
X671760Y440097D01*
X671781Y440194D01*
X671799Y440293D01*
X671812Y440391D01*
X671822Y440491D01*
X671828Y440590D01*
X671830Y440690D01*
X671830Y499110D02*
X671828Y499210D01*
X671822Y499309D01*
X671812Y499409D01*
X671799Y499507D01*
X671781Y499606D01*
X671760Y499703D01*
X671735Y499799D01*
X671706Y499895D01*
X671673Y499989D01*
X671637Y500082D01*
X671597Y500173D01*
X671553Y500263D01*
X671506Y500351D01*
X671456Y500437D01*
X671402Y500521D01*
X671345Y500603D01*
X671285Y500682D01*
X671221Y500760D01*
X671155Y500834D01*
X671086Y500906D01*
X671014Y500975D01*
X670940Y501041D01*
X670862Y501105D01*
X670783Y501165D01*
X670701Y501222D01*
X670617Y501276D01*
X670531Y501326D01*
X670443Y501373D01*
X670353Y501417D01*
X670262Y501457D01*
X670169Y501493D01*
X670075Y501526D01*
X669979Y501555D01*
X669883Y501580D01*
X669786Y501601D01*
X669687Y501619D01*
X669589Y501632D01*
X669489Y501642D01*
X669390Y501648D01*
X669290Y501650D01*
X651510Y501650D02*
X651410Y501648D01*
X651311Y501642D01*
X651211Y501632D01*
X651113Y501619D01*
X651014Y501601D01*
X650917Y501580D01*
X650821Y501555D01*
X650725Y501526D01*
X650631Y501493D01*
X650538Y501457D01*
X650447Y501417D01*
X650357Y501373D01*
X650269Y501326D01*
X650183Y501276D01*
X650099Y501222D01*
X650017Y501165D01*
X649938Y501105D01*
X649860Y501041D01*
X649786Y500975D01*
X649714Y500906D01*
X649645Y500834D01*
X649579Y500760D01*
X649515Y500682D01*
X649455Y500603D01*
X649398Y500521D01*
X649344Y500437D01*
X649294Y500351D01*
X649247Y500263D01*
X649203Y500173D01*
X649163Y500082D01*
X649127Y499989D01*
X649094Y499895D01*
X649065Y499799D01*
X649040Y499703D01*
X649019Y499606D01*
X649001Y499507D01*
X648988Y499409D01*
X648978Y499309D01*
X648972Y499210D01*
X648970Y499110D01*
X651510Y438150D02*
X669290Y438150D01*
X648970Y440690D02*
X648970Y444500D01*
X650240Y445770D01*
X671830Y444500D02*
X671830Y440690D01*
X671830Y444500D02*
X670560Y445770D01*
X650240Y494030D02*
X648970Y495300D01*
X650240Y494030D02*
X650240Y445770D01*
X670560Y494030D02*
X671830Y495300D01*
X670560Y494030D02*
X670560Y445770D01*
X648970Y495300D02*
X648970Y499110D01*
X671830Y499110D02*
X671830Y495300D01*
X669290Y501650D02*
X651510Y501650D01*
D12*
X644525Y440055D02*
X633095Y440055D01*
X633095Y443230D01*
X633097Y443341D01*
X633103Y443451D01*
X633112Y443562D01*
X633126Y443672D01*
X633143Y443781D01*
X633164Y443890D01*
X633189Y443998D01*
X633218Y444105D01*
X633250Y444211D01*
X633286Y444316D01*
X633326Y444419D01*
X633369Y444521D01*
X633416Y444622D01*
X633467Y444721D01*
X633520Y444818D01*
X633577Y444912D01*
X633638Y445005D01*
X633701Y445096D01*
X633768Y445185D01*
X633838Y445271D01*
X633911Y445354D01*
X633986Y445436D01*
X634064Y445514D01*
X634146Y445589D01*
X634229Y445662D01*
X634315Y445732D01*
X634404Y445799D01*
X634495Y445862D01*
X634588Y445923D01*
X634683Y445980D01*
X634779Y446033D01*
X634878Y446084D01*
X634979Y446131D01*
X635081Y446174D01*
X635184Y446214D01*
X635289Y446250D01*
X635395Y446282D01*
X635502Y446311D01*
X635610Y446336D01*
X635719Y446357D01*
X635828Y446374D01*
X635938Y446388D01*
X636049Y446397D01*
X636159Y446403D01*
X636270Y446405D01*
X636381Y446403D01*
X636491Y446397D01*
X636602Y446388D01*
X636712Y446374D01*
X636821Y446357D01*
X636930Y446336D01*
X637038Y446311D01*
X637145Y446282D01*
X637251Y446250D01*
X637356Y446214D01*
X637459Y446174D01*
X637561Y446131D01*
X637662Y446084D01*
X637761Y446033D01*
X637858Y445980D01*
X637952Y445923D01*
X638045Y445862D01*
X638136Y445799D01*
X638225Y445732D01*
X638311Y445662D01*
X638394Y445589D01*
X638476Y445514D01*
X638554Y445436D01*
X638629Y445354D01*
X638702Y445271D01*
X638772Y445185D01*
X638839Y445096D01*
X638902Y445005D01*
X638963Y444912D01*
X639020Y444818D01*
X639073Y444721D01*
X639124Y444622D01*
X639171Y444521D01*
X639214Y444419D01*
X639254Y444316D01*
X639290Y444211D01*
X639322Y444105D01*
X639351Y443998D01*
X639376Y443890D01*
X639397Y443781D01*
X639414Y443672D01*
X639428Y443562D01*
X639437Y443451D01*
X639443Y443341D01*
X639445Y443230D01*
X639445Y440055D01*
X639445Y443865D02*
X644525Y446405D01*
X635953Y457753D02*
X635849Y457751D01*
X635744Y457745D01*
X635640Y457736D01*
X635537Y457723D01*
X635434Y457705D01*
X635332Y457685D01*
X635230Y457660D01*
X635130Y457632D01*
X635030Y457600D01*
X634932Y457564D01*
X634835Y457525D01*
X634740Y457483D01*
X634646Y457437D01*
X634554Y457387D01*
X634464Y457335D01*
X634376Y457279D01*
X634290Y457219D01*
X634206Y457157D01*
X634125Y457092D01*
X634046Y457024D01*
X633969Y456952D01*
X633896Y456879D01*
X633824Y456802D01*
X633756Y456723D01*
X633691Y456642D01*
X633629Y456558D01*
X633569Y456472D01*
X633513Y456384D01*
X633461Y456294D01*
X633411Y456202D01*
X633365Y456108D01*
X633323Y456013D01*
X633284Y455916D01*
X633248Y455818D01*
X633216Y455718D01*
X633188Y455618D01*
X633163Y455516D01*
X633143Y455414D01*
X633125Y455311D01*
X633112Y455208D01*
X633103Y455104D01*
X633097Y454999D01*
X633095Y454895D01*
X633097Y454777D01*
X633103Y454658D01*
X633112Y454540D01*
X633125Y454423D01*
X633143Y454306D01*
X633163Y454189D01*
X633188Y454073D01*
X633216Y453958D01*
X633249Y453845D01*
X633284Y453732D01*
X633324Y453620D01*
X633366Y453510D01*
X633413Y453401D01*
X633463Y453293D01*
X633516Y453188D01*
X633573Y453084D01*
X633633Y452982D01*
X633696Y452882D01*
X633763Y452784D01*
X633832Y452688D01*
X633905Y452595D01*
X633981Y452504D01*
X634059Y452415D01*
X634141Y452329D01*
X634225Y452246D01*
X634311Y452165D01*
X634401Y452088D01*
X634492Y452013D01*
X634586Y451941D01*
X634683Y451872D01*
X634781Y451807D01*
X634882Y451744D01*
X634985Y451685D01*
X635089Y451629D01*
X635195Y451577D01*
X635303Y451528D01*
X635412Y451483D01*
X635523Y451441D01*
X635635Y451403D01*
X638175Y456800D02*
X638100Y456876D01*
X638021Y456951D01*
X637940Y457022D01*
X637856Y457091D01*
X637770Y457156D01*
X637682Y457218D01*
X637592Y457278D01*
X637500Y457334D01*
X637405Y457387D01*
X637309Y457436D01*
X637211Y457482D01*
X637112Y457525D01*
X637011Y457564D01*
X636909Y457599D01*
X636806Y457631D01*
X636702Y457659D01*
X636597Y457684D01*
X636490Y457705D01*
X636384Y457722D01*
X636277Y457735D01*
X636169Y457744D01*
X636061Y457750D01*
X635953Y457752D01*
X638175Y456800D02*
X644525Y451402D01*
X644525Y457752D01*
D15*
X660400Y505968D03*
X660400Y433832D03*
D10*
X801370Y440690D02*
X801372Y440590D01*
X801378Y440491D01*
X801388Y440391D01*
X801401Y440293D01*
X801419Y440194D01*
X801440Y440097D01*
X801465Y440001D01*
X801494Y439905D01*
X801527Y439811D01*
X801563Y439718D01*
X801603Y439627D01*
X801647Y439537D01*
X801694Y439449D01*
X801744Y439363D01*
X801798Y439279D01*
X801855Y439197D01*
X801915Y439118D01*
X801979Y439040D01*
X802045Y438966D01*
X802114Y438894D01*
X802186Y438825D01*
X802260Y438759D01*
X802338Y438695D01*
X802417Y438635D01*
X802499Y438578D01*
X802583Y438524D01*
X802669Y438474D01*
X802757Y438427D01*
X802847Y438383D01*
X802938Y438343D01*
X803031Y438307D01*
X803125Y438274D01*
X803221Y438245D01*
X803317Y438220D01*
X803414Y438199D01*
X803513Y438181D01*
X803611Y438168D01*
X803711Y438158D01*
X803810Y438152D01*
X803910Y438150D01*
X821690Y438150D02*
X821790Y438152D01*
X821889Y438158D01*
X821989Y438168D01*
X822087Y438181D01*
X822186Y438199D01*
X822283Y438220D01*
X822379Y438245D01*
X822475Y438274D01*
X822569Y438307D01*
X822662Y438343D01*
X822753Y438383D01*
X822843Y438427D01*
X822931Y438474D01*
X823017Y438524D01*
X823101Y438578D01*
X823183Y438635D01*
X823262Y438695D01*
X823340Y438759D01*
X823414Y438825D01*
X823486Y438894D01*
X823555Y438966D01*
X823621Y439040D01*
X823685Y439118D01*
X823745Y439197D01*
X823802Y439279D01*
X823856Y439363D01*
X823906Y439449D01*
X823953Y439537D01*
X823997Y439627D01*
X824037Y439718D01*
X824073Y439811D01*
X824106Y439905D01*
X824135Y440001D01*
X824160Y440097D01*
X824181Y440194D01*
X824199Y440293D01*
X824212Y440391D01*
X824222Y440491D01*
X824228Y440590D01*
X824230Y440690D01*
X824230Y499110D02*
X824228Y499210D01*
X824222Y499309D01*
X824212Y499409D01*
X824199Y499507D01*
X824181Y499606D01*
X824160Y499703D01*
X824135Y499799D01*
X824106Y499895D01*
X824073Y499989D01*
X824037Y500082D01*
X823997Y500173D01*
X823953Y500263D01*
X823906Y500351D01*
X823856Y500437D01*
X823802Y500521D01*
X823745Y500603D01*
X823685Y500682D01*
X823621Y500760D01*
X823555Y500834D01*
X823486Y500906D01*
X823414Y500975D01*
X823340Y501041D01*
X823262Y501105D01*
X823183Y501165D01*
X823101Y501222D01*
X823017Y501276D01*
X822931Y501326D01*
X822843Y501373D01*
X822753Y501417D01*
X822662Y501457D01*
X822569Y501493D01*
X822475Y501526D01*
X822379Y501555D01*
X822283Y501580D01*
X822186Y501601D01*
X822087Y501619D01*
X821989Y501632D01*
X821889Y501642D01*
X821790Y501648D01*
X821690Y501650D01*
X803910Y501650D02*
X803810Y501648D01*
X803711Y501642D01*
X803611Y501632D01*
X803513Y501619D01*
X803414Y501601D01*
X803317Y501580D01*
X803221Y501555D01*
X803125Y501526D01*
X803031Y501493D01*
X802938Y501457D01*
X802847Y501417D01*
X802757Y501373D01*
X802669Y501326D01*
X802583Y501276D01*
X802499Y501222D01*
X802417Y501165D01*
X802338Y501105D01*
X802260Y501041D01*
X802186Y500975D01*
X802114Y500906D01*
X802045Y500834D01*
X801979Y500760D01*
X801915Y500682D01*
X801855Y500603D01*
X801798Y500521D01*
X801744Y500437D01*
X801694Y500351D01*
X801647Y500263D01*
X801603Y500173D01*
X801563Y500082D01*
X801527Y499989D01*
X801494Y499895D01*
X801465Y499799D01*
X801440Y499703D01*
X801419Y499606D01*
X801401Y499507D01*
X801388Y499409D01*
X801378Y499309D01*
X801372Y499210D01*
X801370Y499110D01*
X803910Y438150D02*
X821690Y438150D01*
X801370Y440690D02*
X801370Y444500D01*
X802640Y445770D01*
X824230Y444500D02*
X824230Y440690D01*
X824230Y444500D02*
X822960Y445770D01*
X802640Y494030D02*
X801370Y495300D01*
X802640Y494030D02*
X802640Y445770D01*
X822960Y494030D02*
X824230Y495300D01*
X822960Y494030D02*
X822960Y445770D01*
X801370Y495300D02*
X801370Y499110D01*
X824230Y499110D02*
X824230Y495300D01*
X821690Y501650D02*
X803910Y501650D01*
D12*
X796925Y440055D02*
X785495Y440055D01*
X785495Y443230D01*
X785497Y443341D01*
X785503Y443451D01*
X785512Y443562D01*
X785526Y443672D01*
X785543Y443781D01*
X785564Y443890D01*
X785589Y443998D01*
X785618Y444105D01*
X785650Y444211D01*
X785686Y444316D01*
X785726Y444419D01*
X785769Y444521D01*
X785816Y444622D01*
X785867Y444721D01*
X785920Y444818D01*
X785977Y444912D01*
X786038Y445005D01*
X786101Y445096D01*
X786168Y445185D01*
X786238Y445271D01*
X786311Y445354D01*
X786386Y445436D01*
X786464Y445514D01*
X786546Y445589D01*
X786629Y445662D01*
X786715Y445732D01*
X786804Y445799D01*
X786895Y445862D01*
X786988Y445923D01*
X787083Y445980D01*
X787179Y446033D01*
X787278Y446084D01*
X787379Y446131D01*
X787481Y446174D01*
X787584Y446214D01*
X787689Y446250D01*
X787795Y446282D01*
X787902Y446311D01*
X788010Y446336D01*
X788119Y446357D01*
X788228Y446374D01*
X788338Y446388D01*
X788449Y446397D01*
X788559Y446403D01*
X788670Y446405D01*
X788781Y446403D01*
X788891Y446397D01*
X789002Y446388D01*
X789112Y446374D01*
X789221Y446357D01*
X789330Y446336D01*
X789438Y446311D01*
X789545Y446282D01*
X789651Y446250D01*
X789756Y446214D01*
X789859Y446174D01*
X789961Y446131D01*
X790062Y446084D01*
X790161Y446033D01*
X790258Y445980D01*
X790352Y445923D01*
X790445Y445862D01*
X790536Y445799D01*
X790625Y445732D01*
X790711Y445662D01*
X790794Y445589D01*
X790876Y445514D01*
X790954Y445436D01*
X791029Y445354D01*
X791102Y445271D01*
X791172Y445185D01*
X791239Y445096D01*
X791302Y445005D01*
X791363Y444912D01*
X791420Y444818D01*
X791473Y444721D01*
X791524Y444622D01*
X791571Y444521D01*
X791614Y444419D01*
X791654Y444316D01*
X791690Y444211D01*
X791722Y444105D01*
X791751Y443998D01*
X791776Y443890D01*
X791797Y443781D01*
X791814Y443672D01*
X791828Y443562D01*
X791837Y443451D01*
X791843Y443341D01*
X791845Y443230D01*
X791845Y440055D01*
X791845Y443865D02*
X796925Y446405D01*
X796925Y451402D02*
X796925Y454577D01*
X796923Y454688D01*
X796917Y454798D01*
X796908Y454909D01*
X796894Y455019D01*
X796877Y455128D01*
X796856Y455237D01*
X796831Y455345D01*
X796802Y455452D01*
X796770Y455558D01*
X796734Y455663D01*
X796694Y455766D01*
X796651Y455868D01*
X796604Y455969D01*
X796553Y456068D01*
X796500Y456165D01*
X796443Y456259D01*
X796382Y456352D01*
X796319Y456443D01*
X796252Y456532D01*
X796182Y456618D01*
X796109Y456701D01*
X796034Y456783D01*
X795956Y456861D01*
X795874Y456936D01*
X795791Y457009D01*
X795705Y457079D01*
X795616Y457146D01*
X795525Y457209D01*
X795432Y457270D01*
X795338Y457327D01*
X795241Y457380D01*
X795142Y457431D01*
X795041Y457478D01*
X794939Y457521D01*
X794836Y457561D01*
X794731Y457597D01*
X794625Y457629D01*
X794518Y457658D01*
X794410Y457683D01*
X794301Y457704D01*
X794192Y457721D01*
X794082Y457735D01*
X793971Y457744D01*
X793861Y457750D01*
X793750Y457752D01*
X793639Y457750D01*
X793529Y457744D01*
X793418Y457735D01*
X793308Y457721D01*
X793199Y457704D01*
X793090Y457683D01*
X792982Y457658D01*
X792875Y457629D01*
X792769Y457597D01*
X792664Y457561D01*
X792561Y457521D01*
X792459Y457478D01*
X792358Y457431D01*
X792259Y457380D01*
X792163Y457327D01*
X792068Y457270D01*
X791975Y457209D01*
X791884Y457146D01*
X791795Y457079D01*
X791709Y457009D01*
X791626Y456936D01*
X791544Y456861D01*
X791466Y456783D01*
X791391Y456701D01*
X791318Y456618D01*
X791248Y456532D01*
X791181Y456443D01*
X791118Y456352D01*
X791057Y456259D01*
X791000Y456165D01*
X790947Y456068D01*
X790896Y455969D01*
X790849Y455868D01*
X790806Y455766D01*
X790766Y455663D01*
X790730Y455558D01*
X790698Y455452D01*
X790669Y455345D01*
X790644Y455237D01*
X790623Y455128D01*
X790606Y455019D01*
X790592Y454909D01*
X790583Y454798D01*
X790577Y454688D01*
X790575Y454577D01*
X785495Y455212D02*
X785495Y451402D01*
X785495Y455212D02*
X785497Y455312D01*
X785503Y455411D01*
X785513Y455511D01*
X785526Y455609D01*
X785544Y455708D01*
X785565Y455805D01*
X785590Y455901D01*
X785619Y455997D01*
X785652Y456091D01*
X785688Y456184D01*
X785728Y456275D01*
X785772Y456365D01*
X785819Y456453D01*
X785869Y456539D01*
X785923Y456623D01*
X785980Y456705D01*
X786040Y456784D01*
X786104Y456862D01*
X786170Y456936D01*
X786239Y457008D01*
X786311Y457077D01*
X786385Y457143D01*
X786463Y457207D01*
X786542Y457267D01*
X786624Y457324D01*
X786708Y457378D01*
X786794Y457428D01*
X786882Y457475D01*
X786972Y457519D01*
X787063Y457559D01*
X787156Y457595D01*
X787250Y457628D01*
X787346Y457657D01*
X787442Y457682D01*
X787539Y457703D01*
X787638Y457721D01*
X787736Y457734D01*
X787836Y457744D01*
X787935Y457750D01*
X788035Y457752D01*
X788135Y457750D01*
X788234Y457744D01*
X788334Y457734D01*
X788432Y457721D01*
X788531Y457703D01*
X788628Y457682D01*
X788724Y457657D01*
X788820Y457628D01*
X788914Y457595D01*
X789007Y457559D01*
X789098Y457519D01*
X789188Y457475D01*
X789276Y457428D01*
X789362Y457378D01*
X789446Y457324D01*
X789528Y457267D01*
X789607Y457207D01*
X789685Y457143D01*
X789759Y457077D01*
X789831Y457008D01*
X789900Y456936D01*
X789966Y456862D01*
X790030Y456784D01*
X790090Y456705D01*
X790147Y456623D01*
X790201Y456539D01*
X790251Y456453D01*
X790298Y456365D01*
X790342Y456275D01*
X790382Y456184D01*
X790418Y456091D01*
X790451Y455997D01*
X790480Y455901D01*
X790505Y455805D01*
X790526Y455708D01*
X790544Y455609D01*
X790557Y455511D01*
X790567Y455411D01*
X790573Y455312D01*
X790575Y455212D01*
X790575Y452672D01*
D15*
X812800Y505968D03*
X812800Y433832D03*
D10*
X966470Y440690D02*
X966472Y440590D01*
X966478Y440491D01*
X966488Y440391D01*
X966501Y440293D01*
X966519Y440194D01*
X966540Y440097D01*
X966565Y440001D01*
X966594Y439905D01*
X966627Y439811D01*
X966663Y439718D01*
X966703Y439627D01*
X966747Y439537D01*
X966794Y439449D01*
X966844Y439363D01*
X966898Y439279D01*
X966955Y439197D01*
X967015Y439118D01*
X967079Y439040D01*
X967145Y438966D01*
X967214Y438894D01*
X967286Y438825D01*
X967360Y438759D01*
X967438Y438695D01*
X967517Y438635D01*
X967599Y438578D01*
X967683Y438524D01*
X967769Y438474D01*
X967857Y438427D01*
X967947Y438383D01*
X968038Y438343D01*
X968131Y438307D01*
X968225Y438274D01*
X968321Y438245D01*
X968417Y438220D01*
X968514Y438199D01*
X968613Y438181D01*
X968711Y438168D01*
X968811Y438158D01*
X968910Y438152D01*
X969010Y438150D01*
X986790Y438150D02*
X986890Y438152D01*
X986989Y438158D01*
X987089Y438168D01*
X987187Y438181D01*
X987286Y438199D01*
X987383Y438220D01*
X987479Y438245D01*
X987575Y438274D01*
X987669Y438307D01*
X987762Y438343D01*
X987853Y438383D01*
X987943Y438427D01*
X988031Y438474D01*
X988117Y438524D01*
X988201Y438578D01*
X988283Y438635D01*
X988362Y438695D01*
X988440Y438759D01*
X988514Y438825D01*
X988586Y438894D01*
X988655Y438966D01*
X988721Y439040D01*
X988785Y439118D01*
X988845Y439197D01*
X988902Y439279D01*
X988956Y439363D01*
X989006Y439449D01*
X989053Y439537D01*
X989097Y439627D01*
X989137Y439718D01*
X989173Y439811D01*
X989206Y439905D01*
X989235Y440001D01*
X989260Y440097D01*
X989281Y440194D01*
X989299Y440293D01*
X989312Y440391D01*
X989322Y440491D01*
X989328Y440590D01*
X989330Y440690D01*
X989330Y499110D02*
X989328Y499210D01*
X989322Y499309D01*
X989312Y499409D01*
X989299Y499507D01*
X989281Y499606D01*
X989260Y499703D01*
X989235Y499799D01*
X989206Y499895D01*
X989173Y499989D01*
X989137Y500082D01*
X989097Y500173D01*
X989053Y500263D01*
X989006Y500351D01*
X988956Y500437D01*
X988902Y500521D01*
X988845Y500603D01*
X988785Y500682D01*
X988721Y500760D01*
X988655Y500834D01*
X988586Y500906D01*
X988514Y500975D01*
X988440Y501041D01*
X988362Y501105D01*
X988283Y501165D01*
X988201Y501222D01*
X988117Y501276D01*
X988031Y501326D01*
X987943Y501373D01*
X987853Y501417D01*
X987762Y501457D01*
X987669Y501493D01*
X987575Y501526D01*
X987479Y501555D01*
X987383Y501580D01*
X987286Y501601D01*
X987187Y501619D01*
X987089Y501632D01*
X986989Y501642D01*
X986890Y501648D01*
X986790Y501650D01*
X969010Y501650D02*
X968910Y501648D01*
X968811Y501642D01*
X968711Y501632D01*
X968613Y501619D01*
X968514Y501601D01*
X968417Y501580D01*
X968321Y501555D01*
X968225Y501526D01*
X968131Y501493D01*
X968038Y501457D01*
X967947Y501417D01*
X967857Y501373D01*
X967769Y501326D01*
X967683Y501276D01*
X967599Y501222D01*
X967517Y501165D01*
X967438Y501105D01*
X967360Y501041D01*
X967286Y500975D01*
X967214Y500906D01*
X967145Y500834D01*
X967079Y500760D01*
X967015Y500682D01*
X966955Y500603D01*
X966898Y500521D01*
X966844Y500437D01*
X966794Y500351D01*
X966747Y500263D01*
X966703Y500173D01*
X966663Y500082D01*
X966627Y499989D01*
X966594Y499895D01*
X966565Y499799D01*
X966540Y499703D01*
X966519Y499606D01*
X966501Y499507D01*
X966488Y499409D01*
X966478Y499309D01*
X966472Y499210D01*
X966470Y499110D01*
X969010Y438150D02*
X986790Y438150D01*
X966470Y440690D02*
X966470Y444500D01*
X967740Y445770D01*
X989330Y444500D02*
X989330Y440690D01*
X989330Y444500D02*
X988060Y445770D01*
X967740Y494030D02*
X966470Y495300D01*
X967740Y494030D02*
X967740Y445770D01*
X988060Y494030D02*
X989330Y495300D01*
X988060Y494030D02*
X988060Y445770D01*
X966470Y495300D02*
X966470Y499110D01*
X989330Y499110D02*
X989330Y495300D01*
X986790Y501650D02*
X969010Y501650D01*
D12*
X962025Y440055D02*
X950595Y440055D01*
X950595Y443230D01*
X950597Y443341D01*
X950603Y443451D01*
X950612Y443562D01*
X950626Y443672D01*
X950643Y443781D01*
X950664Y443890D01*
X950689Y443998D01*
X950718Y444105D01*
X950750Y444211D01*
X950786Y444316D01*
X950826Y444419D01*
X950869Y444521D01*
X950916Y444622D01*
X950967Y444721D01*
X951020Y444818D01*
X951077Y444912D01*
X951138Y445005D01*
X951201Y445096D01*
X951268Y445185D01*
X951338Y445271D01*
X951411Y445354D01*
X951486Y445436D01*
X951564Y445514D01*
X951646Y445589D01*
X951729Y445662D01*
X951815Y445732D01*
X951904Y445799D01*
X951995Y445862D01*
X952088Y445923D01*
X952183Y445980D01*
X952279Y446033D01*
X952378Y446084D01*
X952479Y446131D01*
X952581Y446174D01*
X952684Y446214D01*
X952789Y446250D01*
X952895Y446282D01*
X953002Y446311D01*
X953110Y446336D01*
X953219Y446357D01*
X953328Y446374D01*
X953438Y446388D01*
X953549Y446397D01*
X953659Y446403D01*
X953770Y446405D01*
X953881Y446403D01*
X953991Y446397D01*
X954102Y446388D01*
X954212Y446374D01*
X954321Y446357D01*
X954430Y446336D01*
X954538Y446311D01*
X954645Y446282D01*
X954751Y446250D01*
X954856Y446214D01*
X954959Y446174D01*
X955061Y446131D01*
X955162Y446084D01*
X955261Y446033D01*
X955358Y445980D01*
X955452Y445923D01*
X955545Y445862D01*
X955636Y445799D01*
X955725Y445732D01*
X955811Y445662D01*
X955894Y445589D01*
X955976Y445514D01*
X956054Y445436D01*
X956129Y445354D01*
X956202Y445271D01*
X956272Y445185D01*
X956339Y445096D01*
X956402Y445005D01*
X956463Y444912D01*
X956520Y444818D01*
X956573Y444721D01*
X956624Y444622D01*
X956671Y444521D01*
X956714Y444419D01*
X956754Y444316D01*
X956790Y444211D01*
X956822Y444105D01*
X956851Y443998D01*
X956876Y443890D01*
X956897Y443781D01*
X956914Y443672D01*
X956928Y443562D01*
X956937Y443451D01*
X956943Y443341D01*
X956945Y443230D01*
X956945Y440055D01*
X956945Y443865D02*
X962025Y446405D01*
X959485Y451402D02*
X950595Y453942D01*
X959485Y451402D02*
X959485Y457752D01*
X956945Y455847D02*
X962025Y455847D01*
D15*
X977900Y505968D03*
X977900Y433832D03*
D10*
X285496Y501650D02*
X285496Y539750D01*
X285496Y501650D02*
X349504Y501650D01*
X349504Y539750D01*
X285496Y539750D01*
X337820Y528320D02*
X337820Y513080D01*
X297180Y513080D02*
X297180Y528320D01*
X297180Y513080D02*
X337820Y513080D01*
X337820Y528320D02*
X297180Y528320D01*
D16*
X305181Y518978D02*
X307269Y516368D01*
X305181Y518978D02*
X314579Y518978D01*
X314579Y516368D02*
X314579Y521589D01*
D12*
X290195Y544195D02*
X290295Y544197D01*
X290394Y544203D01*
X290494Y544213D01*
X290592Y544226D01*
X290691Y544244D01*
X290788Y544265D01*
X290884Y544290D01*
X290980Y544319D01*
X291074Y544352D01*
X291167Y544388D01*
X291258Y544428D01*
X291348Y544472D01*
X291436Y544519D01*
X291522Y544569D01*
X291606Y544623D01*
X291688Y544680D01*
X291767Y544740D01*
X291845Y544804D01*
X291919Y544870D01*
X291991Y544939D01*
X292060Y545011D01*
X292126Y545085D01*
X292190Y545163D01*
X292250Y545242D01*
X292307Y545324D01*
X292361Y545408D01*
X292411Y545494D01*
X292458Y545582D01*
X292502Y545672D01*
X292542Y545763D01*
X292578Y545856D01*
X292611Y545950D01*
X292640Y546046D01*
X292665Y546142D01*
X292686Y546239D01*
X292704Y546338D01*
X292717Y546436D01*
X292727Y546536D01*
X292733Y546635D01*
X292735Y546735D01*
X290195Y544195D02*
X290054Y544197D01*
X289913Y544202D01*
X289772Y544212D01*
X289631Y544225D01*
X289491Y544241D01*
X289351Y544262D01*
X289212Y544286D01*
X289073Y544314D01*
X288936Y544345D01*
X288799Y544380D01*
X288663Y544418D01*
X288528Y544460D01*
X288395Y544506D01*
X288262Y544555D01*
X288131Y544608D01*
X288002Y544664D01*
X287873Y544723D01*
X287747Y544786D01*
X287622Y544852D01*
X287499Y544921D01*
X287378Y544994D01*
X287259Y545070D01*
X287141Y545149D01*
X287026Y545230D01*
X286914Y545315D01*
X286803Y545403D01*
X286695Y545494D01*
X286589Y545587D01*
X286486Y545684D01*
X286385Y545783D01*
X286703Y553085D02*
X286705Y553185D01*
X286711Y553284D01*
X286721Y553384D01*
X286734Y553482D01*
X286752Y553581D01*
X286773Y553678D01*
X286798Y553774D01*
X286827Y553870D01*
X286860Y553964D01*
X286896Y554057D01*
X286936Y554148D01*
X286980Y554238D01*
X287027Y554326D01*
X287077Y554412D01*
X287131Y554496D01*
X287188Y554578D01*
X287248Y554657D01*
X287312Y554735D01*
X287378Y554809D01*
X287447Y554881D01*
X287519Y554950D01*
X287593Y555016D01*
X287671Y555080D01*
X287750Y555140D01*
X287832Y555197D01*
X287916Y555251D01*
X288002Y555301D01*
X288090Y555348D01*
X288180Y555392D01*
X288271Y555432D01*
X288364Y555468D01*
X288458Y555501D01*
X288554Y555530D01*
X288650Y555555D01*
X288747Y555576D01*
X288846Y555594D01*
X288944Y555607D01*
X289044Y555617D01*
X289143Y555623D01*
X289243Y555625D01*
X289243Y555626D02*
X289376Y555624D01*
X289509Y555619D01*
X289642Y555609D01*
X289775Y555596D01*
X289907Y555579D01*
X290039Y555559D01*
X290170Y555535D01*
X290300Y555507D01*
X290430Y555476D01*
X290558Y555441D01*
X290686Y555402D01*
X290812Y555360D01*
X290937Y555314D01*
X291061Y555265D01*
X291184Y555213D01*
X291305Y555157D01*
X291424Y555097D01*
X291542Y555035D01*
X291657Y554969D01*
X291771Y554900D01*
X291883Y554827D01*
X291993Y554752D01*
X292101Y554673D01*
X287972Y550862D02*
X287888Y550914D01*
X287805Y550969D01*
X287725Y551028D01*
X287647Y551089D01*
X287572Y551153D01*
X287499Y551221D01*
X287428Y551291D01*
X287361Y551363D01*
X287296Y551438D01*
X287234Y551516D01*
X287175Y551596D01*
X287119Y551678D01*
X287067Y551762D01*
X287018Y551848D01*
X286972Y551936D01*
X286929Y552026D01*
X286890Y552117D01*
X286855Y552210D01*
X286823Y552304D01*
X286795Y552399D01*
X286770Y552495D01*
X286750Y552592D01*
X286732Y552690D01*
X286719Y552788D01*
X286710Y552887D01*
X286704Y552986D01*
X286702Y553085D01*
X291465Y548958D02*
X291549Y548906D01*
X291632Y548851D01*
X291712Y548792D01*
X291790Y548731D01*
X291865Y548667D01*
X291938Y548599D01*
X292009Y548529D01*
X292076Y548457D01*
X292141Y548382D01*
X292203Y548304D01*
X292262Y548224D01*
X292318Y548142D01*
X292370Y548058D01*
X292419Y547972D01*
X292465Y547884D01*
X292508Y547794D01*
X292547Y547703D01*
X292582Y547610D01*
X292614Y547516D01*
X292642Y547421D01*
X292667Y547325D01*
X292687Y547228D01*
X292705Y547130D01*
X292718Y547032D01*
X292727Y546933D01*
X292733Y546834D01*
X292735Y546735D01*
X291465Y548958D02*
X287973Y550863D01*
X297434Y553085D02*
X300609Y555625D01*
X300609Y544195D01*
X297434Y544195D02*
X303784Y544195D01*
D17*
X330200Y520700D03*
D12*
X925830Y93980D02*
X925830Y83820D01*
D18*
X942930Y79611D02*
X942710Y80156D01*
X942504Y80706D01*
X942311Y81260D01*
X942132Y81820D01*
X941967Y82383D01*
X941815Y82951D01*
X941677Y83522D01*
X941553Y84096D01*
X941443Y84673D01*
X941347Y85252D01*
X941266Y85834D01*
X941198Y86418D01*
X941145Y87002D01*
X941106Y87589D01*
X941081Y88175D01*
X941070Y88763D01*
X941074Y89350D01*
X941092Y89937D01*
X941125Y90524D01*
X941171Y91109D01*
X941232Y91693D01*
X941307Y92276D01*
X941397Y92856D01*
X941500Y93435D01*
X941617Y94010D01*
X941749Y94583D01*
X941894Y95152D01*
X942053Y95717D01*
X942226Y96278D01*
X942412Y96835D01*
X942612Y97388D01*
X942825Y97935D01*
X943052Y98477D01*
X943291Y99013D01*
X943544Y99543D01*
X943810Y100067D01*
X944088Y100585D01*
X944378Y101095D01*
X944681Y101598D01*
X944996Y102094D01*
X945324Y102582D01*
X945662Y103062D01*
X946013Y103533D01*
X946375Y103996D01*
X946748Y104449D01*
X947132Y104894D01*
X947526Y105329D01*
X947931Y105754D01*
X948347Y106170D01*
X948772Y106575D01*
X949207Y106969D01*
X949652Y107353D01*
X950105Y107726D01*
X950568Y108088D01*
X951039Y108439D01*
X951519Y108777D01*
X952007Y109105D01*
X952503Y109420D01*
X953006Y109723D01*
X953516Y110013D01*
X954034Y110291D01*
X954558Y110557D01*
X955088Y110810D01*
X955624Y111049D01*
X956166Y111276D01*
X956713Y111489D01*
X957266Y111689D01*
X957823Y111875D01*
X958384Y112048D01*
X958949Y112207D01*
X959518Y112352D01*
X960091Y112484D01*
X960666Y112601D01*
X961245Y112704D01*
X961825Y112794D01*
X962408Y112869D01*
X962992Y112930D01*
X963577Y112976D01*
X964164Y113009D01*
X964751Y113027D01*
X965338Y113031D01*
X965926Y113020D01*
X966512Y112995D01*
X967099Y112956D01*
X967683Y112903D01*
X968267Y112835D01*
X968849Y112754D01*
X969428Y112658D01*
X970005Y112548D01*
X970579Y112424D01*
X971150Y112286D01*
X971718Y112134D01*
X972281Y111969D01*
X972841Y111790D01*
X973395Y111597D01*
X973945Y111391D01*
X974490Y111171D01*
D12*
X936435Y83820D02*
X925830Y83820D01*
D18*
X955911Y66630D02*
X956447Y66414D01*
X956988Y66210D01*
X957534Y66020D01*
X958084Y65843D01*
X958638Y65679D01*
X959196Y65529D01*
X959757Y65392D01*
X960322Y65268D01*
X960889Y65158D01*
X961459Y65062D01*
X962031Y64979D01*
X962604Y64910D01*
X963180Y64855D01*
X963756Y64813D01*
X964333Y64786D01*
X964911Y64772D01*
X965489Y64772D01*
X966067Y64786D01*
X966644Y64813D01*
X967220Y64855D01*
X967796Y64910D01*
X968369Y64979D01*
X968941Y65062D01*
X969511Y65158D01*
X970078Y65268D01*
X970643Y65392D01*
X971204Y65529D01*
X971762Y65679D01*
X972316Y65843D01*
X972866Y66020D01*
X973412Y66210D01*
X973953Y66414D01*
X974489Y66630D01*
D12*
X936435Y93980D02*
X925830Y93980D01*
D18*
X987470Y98189D02*
X987686Y97653D01*
X987890Y97112D01*
X988080Y96566D01*
X988257Y96016D01*
X988421Y95462D01*
X988571Y94904D01*
X988708Y94343D01*
X988832Y93778D01*
X988942Y93211D01*
X989038Y92641D01*
X989121Y92069D01*
X989190Y91496D01*
X989245Y90920D01*
X989287Y90344D01*
X989314Y89767D01*
X989328Y89189D01*
X989328Y88611D01*
X989314Y88033D01*
X989287Y87456D01*
X989245Y86880D01*
X989190Y86304D01*
X989121Y85731D01*
X989038Y85159D01*
X988942Y84589D01*
X988832Y84022D01*
X988708Y83457D01*
X988571Y82896D01*
X988421Y82338D01*
X988257Y81784D01*
X988080Y81234D01*
X987890Y80688D01*
X987686Y80147D01*
X987470Y79611D01*
D12*
X935990Y88900D02*
X935999Y89617D01*
X936025Y90333D01*
X936069Y91049D01*
X936131Y91763D01*
X936210Y92476D01*
X936306Y93186D01*
X936420Y93894D01*
X936551Y94599D01*
X936700Y95300D01*
X936865Y95997D01*
X937048Y96691D01*
X937248Y97379D01*
X937464Y98063D01*
X937697Y98741D01*
X937947Y99413D01*
X938213Y100078D01*
X938496Y100737D01*
X938794Y101389D01*
X939109Y102033D01*
X939439Y102669D01*
X939785Y103298D01*
X940146Y103917D01*
X940522Y104527D01*
X940913Y105128D01*
X941318Y105719D01*
X941738Y106300D01*
X942172Y106871D01*
X942620Y107431D01*
X943082Y107979D01*
X943557Y108516D01*
X944045Y109041D01*
X944545Y109555D01*
X945059Y110055D01*
X945584Y110543D01*
X946121Y111018D01*
X946669Y111480D01*
X947229Y111928D01*
X947800Y112362D01*
X948381Y112782D01*
X948972Y113187D01*
X949573Y113578D01*
X950183Y113954D01*
X950802Y114315D01*
X951431Y114661D01*
X952067Y114991D01*
X952711Y115306D01*
X953363Y115604D01*
X954022Y115887D01*
X954687Y116153D01*
X955359Y116403D01*
X956037Y116636D01*
X956721Y116852D01*
X957409Y117052D01*
X958103Y117235D01*
X958800Y117400D01*
X959501Y117549D01*
X960206Y117680D01*
X960914Y117794D01*
X961624Y117890D01*
X962337Y117969D01*
X963051Y118031D01*
X963767Y118075D01*
X964483Y118101D01*
X965200Y118110D01*
X965917Y118101D01*
X966633Y118075D01*
X967349Y118031D01*
X968063Y117969D01*
X968776Y117890D01*
X969486Y117794D01*
X970194Y117680D01*
X970899Y117549D01*
X971600Y117400D01*
X972297Y117235D01*
X972991Y117052D01*
X973679Y116852D01*
X974363Y116636D01*
X975041Y116403D01*
X975713Y116153D01*
X976378Y115887D01*
X977037Y115604D01*
X977689Y115306D01*
X978333Y114991D01*
X978969Y114661D01*
X979598Y114315D01*
X980217Y113954D01*
X980827Y113578D01*
X981428Y113187D01*
X982019Y112782D01*
X982600Y112362D01*
X983171Y111928D01*
X983731Y111480D01*
X984279Y111018D01*
X984816Y110543D01*
X985341Y110055D01*
X985855Y109555D01*
X986355Y109041D01*
X986843Y108516D01*
X987318Y107979D01*
X987780Y107431D01*
X988228Y106871D01*
X988662Y106300D01*
X989082Y105719D01*
X989487Y105128D01*
X989878Y104527D01*
X990254Y103917D01*
X990615Y103298D01*
X990961Y102669D01*
X991291Y102033D01*
X991606Y101389D01*
X991904Y100737D01*
X992187Y100078D01*
X992453Y99413D01*
X992703Y98741D01*
X992936Y98063D01*
X993152Y97379D01*
X993352Y96691D01*
X993535Y95997D01*
X993700Y95300D01*
X993849Y94599D01*
X993980Y93894D01*
X994094Y93186D01*
X994190Y92476D01*
X994269Y91763D01*
X994331Y91049D01*
X994375Y90333D01*
X994401Y89617D01*
X994410Y88900D01*
X994401Y88183D01*
X994375Y87467D01*
X994331Y86751D01*
X994269Y86037D01*
X994190Y85324D01*
X994094Y84614D01*
X993980Y83906D01*
X993849Y83201D01*
X993700Y82500D01*
X993535Y81803D01*
X993352Y81109D01*
X993152Y80421D01*
X992936Y79737D01*
X992703Y79059D01*
X992453Y78387D01*
X992187Y77722D01*
X991904Y77063D01*
X991606Y76411D01*
X991291Y75767D01*
X990961Y75131D01*
X990615Y74502D01*
X990254Y73883D01*
X989878Y73273D01*
X989487Y72672D01*
X989082Y72081D01*
X988662Y71500D01*
X988228Y70929D01*
X987780Y70369D01*
X987318Y69821D01*
X986843Y69284D01*
X986355Y68759D01*
X985855Y68245D01*
X985341Y67745D01*
X984816Y67257D01*
X984279Y66782D01*
X983731Y66320D01*
X983171Y65872D01*
X982600Y65438D01*
X982019Y65018D01*
X981428Y64613D01*
X980827Y64222D01*
X980217Y63846D01*
X979598Y63485D01*
X978969Y63139D01*
X978333Y62809D01*
X977689Y62494D01*
X977037Y62196D01*
X976378Y61913D01*
X975713Y61647D01*
X975041Y61397D01*
X974363Y61164D01*
X973679Y60948D01*
X972991Y60748D01*
X972297Y60565D01*
X971600Y60400D01*
X970899Y60251D01*
X970194Y60120D01*
X969486Y60006D01*
X968776Y59910D01*
X968063Y59831D01*
X967349Y59769D01*
X966633Y59725D01*
X965917Y59699D01*
X965200Y59690D01*
X964483Y59699D01*
X963767Y59725D01*
X963051Y59769D01*
X962337Y59831D01*
X961624Y59910D01*
X960914Y60006D01*
X960206Y60120D01*
X959501Y60251D01*
X958800Y60400D01*
X958103Y60565D01*
X957409Y60748D01*
X956721Y60948D01*
X956037Y61164D01*
X955359Y61397D01*
X954687Y61647D01*
X954022Y61913D01*
X953363Y62196D01*
X952711Y62494D01*
X952067Y62809D01*
X951431Y63139D01*
X950802Y63485D01*
X950183Y63846D01*
X949573Y64222D01*
X948972Y64613D01*
X948381Y65018D01*
X947800Y65438D01*
X947229Y65872D01*
X946669Y66320D01*
X946121Y66782D01*
X945584Y67257D01*
X945059Y67745D01*
X944545Y68245D01*
X944045Y68759D01*
X943557Y69284D01*
X943082Y69821D01*
X942620Y70369D01*
X942172Y70929D01*
X941738Y71500D01*
X941318Y72081D01*
X940913Y72672D01*
X940522Y73273D01*
X940146Y73883D01*
X939785Y74502D01*
X939439Y75131D01*
X939109Y75767D01*
X938794Y76411D01*
X938496Y77063D01*
X938213Y77722D01*
X937947Y78387D01*
X937697Y79059D01*
X937464Y79737D01*
X937248Y80421D01*
X937048Y81109D01*
X936865Y81803D01*
X936700Y82500D01*
X936551Y83201D01*
X936420Y83906D01*
X936306Y84614D01*
X936210Y85324D01*
X936131Y86037D01*
X936069Y86751D01*
X936025Y87467D01*
X935999Y88183D01*
X935990Y88900D01*
X1000760Y89535D02*
X1000760Y100965D01*
X997585Y100965D02*
X1003935Y100965D01*
X1008253Y98425D02*
X1011428Y100965D01*
X1011428Y89535D01*
X1008253Y89535D02*
X1014603Y89535D01*
X500380Y49530D02*
X490220Y49530D01*
D18*
X504589Y66630D02*
X504044Y66410D01*
X503494Y66204D01*
X502940Y66011D01*
X502380Y65832D01*
X501817Y65667D01*
X501249Y65515D01*
X500678Y65377D01*
X500104Y65253D01*
X499527Y65143D01*
X498948Y65047D01*
X498366Y64966D01*
X497782Y64898D01*
X497198Y64845D01*
X496611Y64806D01*
X496025Y64781D01*
X495437Y64770D01*
X494850Y64774D01*
X494263Y64792D01*
X493676Y64825D01*
X493091Y64871D01*
X492507Y64932D01*
X491924Y65007D01*
X491344Y65097D01*
X490765Y65200D01*
X490190Y65317D01*
X489617Y65449D01*
X489048Y65594D01*
X488483Y65753D01*
X487922Y65926D01*
X487365Y66112D01*
X486812Y66312D01*
X486265Y66525D01*
X485723Y66752D01*
X485187Y66991D01*
X484657Y67244D01*
X484133Y67510D01*
X483615Y67788D01*
X483105Y68078D01*
X482602Y68381D01*
X482106Y68696D01*
X481618Y69024D01*
X481138Y69362D01*
X480667Y69713D01*
X480204Y70075D01*
X479751Y70448D01*
X479306Y70832D01*
X478871Y71226D01*
X478446Y71631D01*
X478030Y72047D01*
X477625Y72472D01*
X477231Y72907D01*
X476847Y73352D01*
X476474Y73805D01*
X476112Y74268D01*
X475761Y74739D01*
X475423Y75219D01*
X475095Y75707D01*
X474780Y76203D01*
X474477Y76706D01*
X474187Y77216D01*
X473909Y77734D01*
X473643Y78258D01*
X473390Y78788D01*
X473151Y79324D01*
X472924Y79866D01*
X472711Y80413D01*
X472511Y80966D01*
X472325Y81523D01*
X472152Y82084D01*
X471993Y82649D01*
X471848Y83218D01*
X471716Y83791D01*
X471599Y84366D01*
X471496Y84945D01*
X471406Y85525D01*
X471331Y86108D01*
X471270Y86692D01*
X471224Y87277D01*
X471191Y87864D01*
X471173Y88451D01*
X471169Y89038D01*
X471180Y89626D01*
X471205Y90212D01*
X471244Y90799D01*
X471297Y91383D01*
X471365Y91967D01*
X471446Y92549D01*
X471542Y93128D01*
X471652Y93705D01*
X471776Y94279D01*
X471914Y94850D01*
X472066Y95418D01*
X472231Y95981D01*
X472410Y96541D01*
X472603Y97095D01*
X472809Y97645D01*
X473029Y98190D01*
D12*
X500380Y60135D02*
X500380Y49530D01*
D18*
X517570Y79611D02*
X517786Y80147D01*
X517990Y80688D01*
X518180Y81234D01*
X518357Y81784D01*
X518521Y82338D01*
X518671Y82896D01*
X518808Y83457D01*
X518932Y84022D01*
X519042Y84589D01*
X519138Y85159D01*
X519221Y85731D01*
X519290Y86304D01*
X519345Y86880D01*
X519387Y87456D01*
X519414Y88033D01*
X519428Y88611D01*
X519428Y89189D01*
X519414Y89767D01*
X519387Y90344D01*
X519345Y90920D01*
X519290Y91496D01*
X519221Y92069D01*
X519138Y92641D01*
X519042Y93211D01*
X518932Y93778D01*
X518808Y94343D01*
X518671Y94904D01*
X518521Y95462D01*
X518357Y96016D01*
X518180Y96566D01*
X517990Y97112D01*
X517786Y97653D01*
X517570Y98189D01*
D12*
X490220Y60135D02*
X490220Y49530D01*
D18*
X486011Y111170D02*
X486547Y111386D01*
X487088Y111590D01*
X487634Y111780D01*
X488184Y111957D01*
X488738Y112121D01*
X489296Y112271D01*
X489857Y112408D01*
X490422Y112532D01*
X490989Y112642D01*
X491559Y112738D01*
X492131Y112821D01*
X492704Y112890D01*
X493280Y112945D01*
X493856Y112987D01*
X494433Y113014D01*
X495011Y113028D01*
X495589Y113028D01*
X496167Y113014D01*
X496744Y112987D01*
X497320Y112945D01*
X497896Y112890D01*
X498469Y112821D01*
X499041Y112738D01*
X499611Y112642D01*
X500178Y112532D01*
X500743Y112408D01*
X501304Y112271D01*
X501862Y112121D01*
X502416Y111957D01*
X502966Y111780D01*
X503512Y111590D01*
X504053Y111386D01*
X504589Y111170D01*
D12*
X466090Y88900D02*
X466099Y89617D01*
X466125Y90333D01*
X466169Y91049D01*
X466231Y91763D01*
X466310Y92476D01*
X466406Y93186D01*
X466520Y93894D01*
X466651Y94599D01*
X466800Y95300D01*
X466965Y95997D01*
X467148Y96691D01*
X467348Y97379D01*
X467564Y98063D01*
X467797Y98741D01*
X468047Y99413D01*
X468313Y100078D01*
X468596Y100737D01*
X468894Y101389D01*
X469209Y102033D01*
X469539Y102669D01*
X469885Y103298D01*
X470246Y103917D01*
X470622Y104527D01*
X471013Y105128D01*
X471418Y105719D01*
X471838Y106300D01*
X472272Y106871D01*
X472720Y107431D01*
X473182Y107979D01*
X473657Y108516D01*
X474145Y109041D01*
X474645Y109555D01*
X475159Y110055D01*
X475684Y110543D01*
X476221Y111018D01*
X476769Y111480D01*
X477329Y111928D01*
X477900Y112362D01*
X478481Y112782D01*
X479072Y113187D01*
X479673Y113578D01*
X480283Y113954D01*
X480902Y114315D01*
X481531Y114661D01*
X482167Y114991D01*
X482811Y115306D01*
X483463Y115604D01*
X484122Y115887D01*
X484787Y116153D01*
X485459Y116403D01*
X486137Y116636D01*
X486821Y116852D01*
X487509Y117052D01*
X488203Y117235D01*
X488900Y117400D01*
X489601Y117549D01*
X490306Y117680D01*
X491014Y117794D01*
X491724Y117890D01*
X492437Y117969D01*
X493151Y118031D01*
X493867Y118075D01*
X494583Y118101D01*
X495300Y118110D01*
X496017Y118101D01*
X496733Y118075D01*
X497449Y118031D01*
X498163Y117969D01*
X498876Y117890D01*
X499586Y117794D01*
X500294Y117680D01*
X500999Y117549D01*
X501700Y117400D01*
X502397Y117235D01*
X503091Y117052D01*
X503779Y116852D01*
X504463Y116636D01*
X505141Y116403D01*
X505813Y116153D01*
X506478Y115887D01*
X507137Y115604D01*
X507789Y115306D01*
X508433Y114991D01*
X509069Y114661D01*
X509698Y114315D01*
X510317Y113954D01*
X510927Y113578D01*
X511528Y113187D01*
X512119Y112782D01*
X512700Y112362D01*
X513271Y111928D01*
X513831Y111480D01*
X514379Y111018D01*
X514916Y110543D01*
X515441Y110055D01*
X515955Y109555D01*
X516455Y109041D01*
X516943Y108516D01*
X517418Y107979D01*
X517880Y107431D01*
X518328Y106871D01*
X518762Y106300D01*
X519182Y105719D01*
X519587Y105128D01*
X519978Y104527D01*
X520354Y103917D01*
X520715Y103298D01*
X521061Y102669D01*
X521391Y102033D01*
X521706Y101389D01*
X522004Y100737D01*
X522287Y100078D01*
X522553Y99413D01*
X522803Y98741D01*
X523036Y98063D01*
X523252Y97379D01*
X523452Y96691D01*
X523635Y95997D01*
X523800Y95300D01*
X523949Y94599D01*
X524080Y93894D01*
X524194Y93186D01*
X524290Y92476D01*
X524369Y91763D01*
X524431Y91049D01*
X524475Y90333D01*
X524501Y89617D01*
X524510Y88900D01*
X524501Y88183D01*
X524475Y87467D01*
X524431Y86751D01*
X524369Y86037D01*
X524290Y85324D01*
X524194Y84614D01*
X524080Y83906D01*
X523949Y83201D01*
X523800Y82500D01*
X523635Y81803D01*
X523452Y81109D01*
X523252Y80421D01*
X523036Y79737D01*
X522803Y79059D01*
X522553Y78387D01*
X522287Y77722D01*
X522004Y77063D01*
X521706Y76411D01*
X521391Y75767D01*
X521061Y75131D01*
X520715Y74502D01*
X520354Y73883D01*
X519978Y73273D01*
X519587Y72672D01*
X519182Y72081D01*
X518762Y71500D01*
X518328Y70929D01*
X517880Y70369D01*
X517418Y69821D01*
X516943Y69284D01*
X516455Y68759D01*
X515955Y68245D01*
X515441Y67745D01*
X514916Y67257D01*
X514379Y66782D01*
X513831Y66320D01*
X513271Y65872D01*
X512700Y65438D01*
X512119Y65018D01*
X511528Y64613D01*
X510927Y64222D01*
X510317Y63846D01*
X509698Y63485D01*
X509069Y63139D01*
X508433Y62809D01*
X507789Y62494D01*
X507137Y62196D01*
X506478Y61913D01*
X505813Y61647D01*
X505141Y61397D01*
X504463Y61164D01*
X503779Y60948D01*
X503091Y60748D01*
X502397Y60565D01*
X501700Y60400D01*
X500999Y60251D01*
X500294Y60120D01*
X499586Y60006D01*
X498876Y59910D01*
X498163Y59831D01*
X497449Y59769D01*
X496733Y59725D01*
X496017Y59699D01*
X495300Y59690D01*
X494583Y59699D01*
X493867Y59725D01*
X493151Y59769D01*
X492437Y59831D01*
X491724Y59910D01*
X491014Y60006D01*
X490306Y60120D01*
X489601Y60251D01*
X488900Y60400D01*
X488203Y60565D01*
X487509Y60748D01*
X486821Y60948D01*
X486137Y61164D01*
X485459Y61397D01*
X484787Y61647D01*
X484122Y61913D01*
X483463Y62196D01*
X482811Y62494D01*
X482167Y62809D01*
X481531Y63139D01*
X480902Y63485D01*
X480283Y63846D01*
X479673Y64222D01*
X479072Y64613D01*
X478481Y65018D01*
X477900Y65438D01*
X477329Y65872D01*
X476769Y66320D01*
X476221Y66782D01*
X475684Y67257D01*
X475159Y67745D01*
X474645Y68245D01*
X474145Y68759D01*
X473657Y69284D01*
X473182Y69821D01*
X472720Y70369D01*
X472272Y70929D01*
X471838Y71500D01*
X471418Y72081D01*
X471013Y72672D01*
X470622Y73273D01*
X470246Y73883D01*
X469885Y74502D01*
X469539Y75131D01*
X469209Y75767D01*
X468894Y76411D01*
X468596Y77063D01*
X468313Y77722D01*
X468047Y78387D01*
X467797Y79059D01*
X467564Y79737D01*
X467348Y80421D01*
X467148Y81109D01*
X466965Y81803D01*
X466800Y82500D01*
X466651Y83201D01*
X466520Y83906D01*
X466406Y84614D01*
X466310Y85324D01*
X466231Y86037D01*
X466169Y86751D01*
X466125Y87467D01*
X466099Y88183D01*
X466090Y88900D01*
X483235Y124460D02*
X494665Y124460D01*
X483235Y121285D02*
X483235Y127635D01*
X483235Y135446D02*
X483237Y135550D01*
X483243Y135655D01*
X483252Y135759D01*
X483265Y135862D01*
X483283Y135965D01*
X483303Y136067D01*
X483328Y136169D01*
X483356Y136269D01*
X483388Y136369D01*
X483424Y136467D01*
X483463Y136564D01*
X483505Y136659D01*
X483551Y136753D01*
X483601Y136845D01*
X483653Y136935D01*
X483709Y137023D01*
X483769Y137109D01*
X483831Y137193D01*
X483896Y137274D01*
X483964Y137353D01*
X484036Y137430D01*
X484109Y137503D01*
X484186Y137575D01*
X484265Y137643D01*
X484346Y137708D01*
X484430Y137770D01*
X484516Y137830D01*
X484604Y137886D01*
X484694Y137938D01*
X484786Y137988D01*
X484880Y138034D01*
X484975Y138076D01*
X485072Y138115D01*
X485170Y138151D01*
X485270Y138183D01*
X485370Y138211D01*
X485472Y138236D01*
X485574Y138256D01*
X485677Y138274D01*
X485780Y138287D01*
X485884Y138296D01*
X485989Y138302D01*
X486093Y138304D01*
X483235Y135446D02*
X483237Y135328D01*
X483243Y135209D01*
X483252Y135091D01*
X483265Y134974D01*
X483283Y134857D01*
X483303Y134740D01*
X483328Y134624D01*
X483356Y134509D01*
X483389Y134396D01*
X483424Y134283D01*
X483464Y134171D01*
X483506Y134061D01*
X483553Y133952D01*
X483603Y133844D01*
X483656Y133739D01*
X483713Y133635D01*
X483773Y133533D01*
X483836Y133433D01*
X483903Y133335D01*
X483972Y133239D01*
X484045Y133146D01*
X484121Y133055D01*
X484199Y132966D01*
X484281Y132880D01*
X484365Y132797D01*
X484451Y132716D01*
X484541Y132639D01*
X484632Y132564D01*
X484726Y132492D01*
X484823Y132423D01*
X484921Y132358D01*
X485022Y132295D01*
X485125Y132236D01*
X485229Y132180D01*
X485335Y132128D01*
X485443Y132079D01*
X485552Y132034D01*
X485663Y131992D01*
X485775Y131954D01*
X488315Y137351D02*
X488240Y137427D01*
X488161Y137502D01*
X488080Y137573D01*
X487996Y137642D01*
X487910Y137707D01*
X487822Y137769D01*
X487732Y137829D01*
X487640Y137885D01*
X487545Y137938D01*
X487449Y137987D01*
X487351Y138033D01*
X487252Y138076D01*
X487151Y138115D01*
X487049Y138150D01*
X486946Y138182D01*
X486842Y138210D01*
X486737Y138235D01*
X486630Y138256D01*
X486524Y138273D01*
X486417Y138286D01*
X486309Y138295D01*
X486201Y138301D01*
X486093Y138303D01*
X488315Y137351D02*
X494665Y131953D01*
X494665Y138303D01*
M02*
